<?xml version="1.0" encoding="UTF-8"?>
<svg version="1.1" viewBox="0 0 1600 1600" width="1280" height="1280" xmlns="http://www.w3.org/2000/svg">
<path transform="translate(1007,690)" d="m0 0c0.977 0.177 1.95 0.354 2.96 0.537 10.1 1.86 20.1 3.74 29.9 6.79 2.57 0.802 5.17 1.49 7.78 2.17 4.59 1.25 8.97 2.72 13.4 4.5 0.846 0.325 1.69 0.65 2.56 0.984 8.53 3.38 16.5 7.63 24.6 12 1.53 0.828 3.06 1.64 4.59 2.45 5.75 3.08 11 6.75 16.3 10.6 1.2 0.856 2.4 1.71 3.61 2.57 3.47 2.47 6.94 4.94 10.4 7.43 0.797 0.552 1.59 1.1 2.41 1.67 0.523 0.438 1.05 0.877 1.59 1.33v2c0.583 0.266 1.17 0.532 1.77 0.806 13.3 7.12 33.2 26.9 38.2 41.2h2c1.3 1.62 1.3 1.62 2.75 3.88 0.53 0.821 1.06 1.64 1.61 2.49 2.12 3.39 4.18 6.81 6.22 10.3 1.22 2.04 2.5 4.02 3.8 6 3.71 5.9 6.63 12.3 9.7 18.5 1.21 2.45 2.48 4.88 3.74 7.31 1.87 3.73 3.27 7.46 4.51 11.4 0.633 2 1.35 3.93 2.11 5.88 3.19 8.44 5.67 16.9 7.13 25.8 0.42 2.61 0.42 2.61 1.43 5.85 2.56 9.11 3.29 18.3 3.66 27.7-0.195 3.75-0.195 3.75 1.34 6.88 0.293 4.8 0.246 9.62 0.25 14.4 6.75e-4 0.72 0.00135 1.44 0.00204 2.18-0.0351 23.6-2.88 46.8-10.5 69.3-1.02 3.05-1.86 6.14-2.71 9.24-1.37 4.84-2.87 9.33-5 13.9-0.422 1.09-0.422 1.09-0.852 2.21-1.46 3.56-3.17 6.98-4.9 10.4-0.356 0.709-0.713 1.42-1.08 2.15-7.24 14.3-15.3 27.5-25.2 40.2-0.471 0.609-0.942 1.22-1.43 1.85-1.48 1.91-2.96 3.81-4.45 5.72-0.464 0.596-0.929 1.19-1.41 1.81-2.12 2.7-4.25 5.25-6.72 7.63-1.07 1.24-2.13 2.5-3.19 3.75-3.1 3.57-6.41 6.66-10 9.71-1.95 1.63-1.95 1.63-4.17 3.98-1.62 1.56-1.62 1.56-3.62 1.56-0.294 0.841-0.294 0.841-0.594 1.7-1.98 3.24-4.82 5.02-7.91 7.11-0.63 0.438-1.26 0.876-1.91 1.33-1.27 0.883-2.54 1.76-3.82 2.64-2.36 1.63-4.69 3.3-7.02 4.97-4.78 3.33-9.71 6.32-14.8 9.25-1.54 0.905-3.07 1.81-4.61 2.71-1.69 0.991-3.39 1.98-5.08 2.97-0.808 0.476-1.62 0.952-2.45 1.44-4.52 2.63-9 4.92-13.9 6.87-1.16 0.483-2.32 0.967-3.51 1.46-11.3 4.6-22.6 8.26-34.5 10.9-1.72 0.379-3.44 0.774-5.15 1.21-5.78 1.45-11.6 2.05-17.6 2.66-3.56 0.364-7.1 0.762-10.6 1.28-9.05 1.32-17.9 1.91-27.1 1.88-0.7-2.11e-4 -1.4-4.23e-4 -2.12-6.41e-4 -25.8-0.0766-53.3-2.87-77.4-12.4-1.22-0.454-2.43-0.908-3.69-1.38-0.664-0.251-1.33-0.503-2.01-0.762-1.71-0.64-3.42-1.27-5.13-1.88-25.7-9.49-48.9-24.6-69.9-42.1-2.23-1.89-2.23-1.89-4.57-3.5-0.841-0.681-0.841-0.681-1.7-1.38v-2h-2v-2c-0.859-0.371-0.859-0.371-1.73-0.75-2.62-1.44-4.41-3.13-6.52-5.25-0.706-0.701-1.41-1.4-2.14-2.12-1.61-1.88-1.61-1.88-1.61-3.88h-2c-1.52-1.62-1.52-1.62-3.38-4-0.708-0.906-1.42-1.81-2.14-2.75-3.4-4.45-6.76-8.93-10.1-13.4-2.73-3.66-5.5-7.28-8.37-10.8-2.48-3.16-4.3-6.29-5.98-9.93-1.14-2.32-2.46-4.45-3.83-6.63-9.64-15.8-16.4-33.7-20.7-51.7-0.718-2.97-1.49-5.88-2.47-8.78-1.13-3.46-1.85-6.91-2.54-10.5l-0.754-3.84c-0.226-1.21-0.451-2.41-0.684-3.66-0.171-0.911-0.343-1.82-0.52-2.76-4.02-27.1-5.14-59.7 2.52-86.2 0.344-1.95 0.658-3.91 0.938-5.88 0.717-4.5 1.74-8.63 3.28-12.9 0.852-2.4 1.57-4.83 2.29-7.28 2.77-9.28 6.03-19.2 11.1-27.5 1.82-3.07 2.7-6.14 3.7-9.54 0.746-1.89 0.746-1.89 2.75-2.89 0.729-1.64 1.39-3.31 2-5 1.78-4.89 1.78-4.89 4-6 0.867-1.38 1.67-2.81 2.44-4.25 0.438-0.81 0.877-1.62 1.33-2.45 0.407-0.758 0.815-1.52 1.23-2.3 2.74-4.87 2.74-4.87 5-6 0.988-1.71 1.97-3.43 2.93-5.16 1.84-3.15 4.07-5.88 6.7-8.41 1.47-1.39 1.47-1.39 2.25-3.31 2.02-3.82 5.45-6.49 8.56-9.44 2.11-2.21 3.79-4.34 5.56-6.81 2.37-3.24 4.44-4.96 8-6.88 1.67-1.66 3.34-3.33 5-5 10.4-9.04 21.7-16.5 33.3-23.9 1.63-1.04 3.25-2.1 4.88-3.15 0.956-0.62 1.91-1.24 2.9-1.88 0.837-0.545 1.67-1.09 2.54-1.65 2.42-1.42 4.8-2.39 7.4-3.41 2.09-1.07 4.17-2.16 6.25-3.25 7.34-3.77 14.9-6.47 22.8-9.06 1.95-0.675 3.85-1.43 5.76-2.2 5.16-1.96 10.5-2.96 15.9-4.05 2.03-0.414 4.05-0.832 6.07-1.25 0.886-0.18 1.77-0.36 2.69-0.545 2.57-0.575 2.57-0.575 4.98-1.66 5.36-2.04 11.3-2.09 16.9-2.6 0.701-0.0654 1.4-0.131 2.12-0.198 21-1.92 42.7-2.96 63.5 0.823zm-48 27c-2.22 4.01-2.4 7.46-2 12 1.89 5.26 4.6 7.79 9 11 5.41 1.8 11.6 1.92 16.9-0.125 4.34-3.95 6.8-8.22 7.38-14.1-0.487-5.94-2.84-10.8-7.31-14.8-9.2-5-17.6-1.45-24 6zm-54 6c-2.87 4.82-2.58 10.3-1.44 15.6 3.17 5.23 7.33 8.42 13.2 10 5.8 0.847 10.3-0.492 15.2-3.62 4.23-3.67 6.35-7.38 6.75-13-0.357-5.65-2.92-9.02-6.75-13-0.763-0.825-1.53-1.65-2.31-2.5-8.77-4.89-18.2 0.134-24.7 6.5zm106-1.5c-3.37 4.94-3.53 10.7-2.54 16.5 3.08 5.29 7.32 8.04 13 10 4.86 0.884 7.63-0.0797 11.8-2.56 4.08-2.97 5.96-5.45 7.25-10.4 0.941-6.48-0.489-9.84-4.36-15.1-3.23-3.8-5.46-4.76-10.4-5.42-5.75 0.25-10.7 2.9-14.7 7zm52.5 17.5c-3.16 4.96-5.59 10-5 16 1.82 5.59 4.66 9.28 9.81 12.1 3.83 1.62 7.04 2.64 11.2 1.79 4.37-1.98 7.86-5.37 11-8.92 1.83-5.5 1.67-10.3-0.438-15.7-2.85-4.32-6.95-7.09-11.6-9.31-5.6-0.982-10.7 0.287-15 4zm-208 5c-3.48 4.91-3.66 9.17-3.12 15 1.52 4.66 3.87 7.38 7.91 10 5.07 2.37 10.1 2.61 15.4 0.918 4.09-2.95 7.06-6.06 8.69-10.9 0.868-6.18-0.164-10.8-3.45-16.1-3.28-3.99-7.11-4.73-12.1-5.26-5.54 0.594-9.7 2.13-13.4 6.38zm-39.9 29.9c-3.98 5.53-5 9.35-4.25 16.1 1.69 4.7 3.76 7.36 8 10 6.11 2.24 10.9 2.38 17 0 2.57-1.81 2.57-1.81 4-4v-2h2c1.71-5.13 1.93-10.9 0.352-16.1-2.31-4.56-5.6-7.25-10.4-8.86-6.58-1.01-12.1 0.0239-16.8 4.88zm291 2.12c-2.47 4.12-4.29 7.82-3.64 12.7 1.83 5.37 4.31 8.81 9.36 11.5 5.34 1.96 10.2 2.52 15.6 0.777 4.09-2.95 7.06-6.06 8.69-10.9 0.808-6.58-0.787-10.2-4.2-15.8-2.54-3.1-5.07-4.89-9.05-5.6-6.94 0.0742-12.4 1.69-16.8 7.4zm32.2 39c-3.32 4.56-3.69 8.5-3.19 14 0.895 5.26 2.83 8.31 7.12 11.5 4.64 2.76 8.57 3.66 13.9 2.5 5.05-2.52 9.77-6.36 11.6-11.9 1.23-6.74-1.3-11.7-4.51-17.5-2.4-2.96-3.43-3.8-7.12-4.62-7.34-0.747-12.8 0.232-17.8 6zm-351 1c-1.01 0.371-2.02 0.743-3.06 1.12-4.03 2.57-5.45 5.41-6.94 9.88-0.897 4.93 0.105 7.62 2.69 11.8 3.6 4.93 6.6 7.1 12.6 8.19 5.09 0.398 8.63-0.891 12.7-3.94 3.17-2.84 4.74-5.44 5.44-9.65 0.267-6.28-0.512-10.4-4.44-15.3-3.41-2.84-6.2-3.92-10.6-4.38-3.27 0.363-5.44 0.945-8.38 2.38zm154 5c-0.279 3.01-0.279 3.01-0.195 6.54 0.00967 1.95 0.00967 1.95 0.0195 3.95 0.0167 1.38 0.0336 2.76 0.0508 4.14 0.01 1.39 0.0192 2.78 0.0273 4.16 0.0236 3.4 0.0566 6.81 0.0977 10.2-0.688-0.00444-1.38-0.00888-2.09-0.0135-7.17-0.0443-14.3-0.0744-21.5-0.0964-2.68-0.00892-5.35-0.0237-8.03-0.041-3.85-0.0243-7.69-0.0356-11.5-0.0444-1.79-0.0155-1.79-0.0155-3.62-0.0313-1.68-2.27e-4 -1.68-2.27e-4 -3.4-4.58e-4 -0.982-0.00444-1.96-0.00888-2.97-0.0135-3.23 0.273-5.86 1.01-8.85 2.24-1.44 2.87-1.11 5.34-1.1 8.54 0.00322 1.3 0.00645 2.6 0.00977 3.95 0.00836 1.38 0.0168 2.76 0.0254 4.14 0.00501 1.39 0.00958 2.78 0.0137 4.16 0.0118 3.4 0.0283 6.81 0.0488 10.2 9.56 4.78 21.3 1.64 32 2v92h-30c-2.87 2.87-2.26 4.9-2.27 8.91-0.00191 0.681-0.00383 1.36-0.0058 2.06-0.00136 1.44 0.00233 2.88 0.0107 4.32 0.0107 2.21 1.03e-4 4.41-0.0127 6.62 0.00132 1.4 0.00388 2.79 0.00781 4.19 0.00226 1.28 0.00451 2.55 0.00684 3.87-0.0609 3.15-0.0609 3.15 2.26 5.04 2.58 0.325 2.58 0.325 5.63 0.303 1.18 0.0166 2.36 0.0333 3.57 0.0504 1.28 0.00841 2.55 0.0168 3.87 0.0255 1.99 0.026 3.98 0.0519 5.98 0.0782 2.8 0.0344 5.59 0.06 8.39 0.0855 4.9 0.0457 9.79 0.101 14.7 0.163 2.61 0.0321 5.22 0.0589 7.83 0.0802 1.17 0.0135 2.35 0.027 3.56 0.0409 1.04 0.00951 2.08 0.019 3.15 0.0288 2.35 0.145 2.35 0.145 3.35 1.14 0.158 2.07 0.251 4.15 0.316 6.22 0.0419 1.26 0.0838 2.52 0.127 3.82 0.0398 1.34 0.0795 2.68 0.119 4.02 0.0432 1.34 0.0868 2.69 0.131 4.03 0.106 3.3 0.209 6.6 0.307 9.9 5.29 1.76 11 1.43 16.5 1.62 1.25 0.0516 2.5 0.103 3.79 0.156 1.79 0.0657 1.79 0.0657 3.62 0.133 1.1 0.0408 2.19 0.0815 3.32 0.124 2.86 0.101 2.86 0.101 5.77-1.04 0.886-3.79 1.12-7.29 1.1-11.2-0.00322-1.16-0.00645-2.31-0.00977-3.51-0.00838-1.2-0.0168-2.4-0.0254-3.63-0.00451-1.22-0.00902-2.44-0.0137-3.69-0.0118-3-0.0297-6-0.0488-9 4.62 0.33 9.24 0.66 14 1v29c2.97 1.49 5.66 1.11 8.98 1.1 0.685-0.00141 1.37-0.00283 2.08-0.00429 2.19-0.0056 4.38-0.0182 6.57-0.0309 1.48-0.00501 2.97-0.00958 4.45-0.0137 3.64-0.011 7.28-0.0283 10.9-0.0488 0.786-4.15 1.12-8.05 1.1-12.3-0.00322-1.15-0.00645-2.31-0.00977-3.5-0.00838-1.19-0.0168-2.38-0.0254-3.61-0.00677-1.82-0.00677-1.82-0.0137-3.68-0.0117-2.98-0.0282-5.97-0.0488-8.95 0.726-0.0512 1.45-0.102 2.2-0.155 9.36-0.739 17.7-2.34 24.8-8.84 1.18-0.661 1.18-0.661 2.38-1.34 7.76-4.93 11.8-13.2 14.6-21.7 0.298-0.682 0.596-1.36 0.902-2.07 3.61-8.78 3.71-20.9 0.16-29.8-3.33-7.56-3.33-7.56-8.06-14.2-0.349-3-0.376-4.48 1.43-6.96 0.623-0.651 1.25-1.3 1.89-1.97 6.3-7.64 7.55-18.4 6.69-28.1-0.087-1.44-0.087-1.44-0.176-2.91-1.13-11.2-6.28-23-14.8-30.6-7.23-5.43-13.7-9.24-22.6-11-0.911-0.18-1.82-0.361-2.76-0.547-0.853-0.156-1.71-0.312-2.59-0.473-2.04-0.465-2.04-0.465-3.04-1.46-0.146-2.05-0.227-4.1-0.281-6.15-0.0561-1.88-0.0561-1.88-0.113-3.79-0.0348-1.32-0.0696-2.64-0.105-3.99-0.0687-2.59-0.141-5.19-0.219-7.78-0.0303-1.16-0.0606-2.31-0.0918-3.5-0.00698-2.74-0.00698-2.74-1.19-4.78-4.38-0.0494-8.76-0.0857-13.1-0.11-1.49-0.0101-2.98-0.0237-4.47-0.041-2.14-0.0242-4.28-0.0356-6.42-0.0444-1.29-0.0105-2.58-0.0209-3.9-0.0317-3.18-0.101-3.18-0.101-5.07 2.23-0.279 3.01-0.279 3.01-0.195 6.54 0.00645 1.3 0.0129 2.6 0.0195 3.95 0.0167 1.38 0.0336 2.76 0.0508 4.14 0.01 1.39 0.0192 2.78 0.0273 4.16 0.0236 3.4 0.0595 6.81 0.0977 10.2-4.29-0.33-8.58-0.66-13-1-0.17-2.98-0.336-5.96-0.5-8.94-0.0715-1.25-0.0715-1.25-0.145-2.52-0.228-4.19-0.371-8.35-0.324-12.5 0.264-3.77 0.264-3.77-1.03-6-4.38-0.0494-8.76-0.0857-13.1-0.11-1.49-0.0101-2.98-0.0237-4.47-0.041-2.14-0.0242-4.28-0.0356-6.42-0.0444-1.29-0.0105-2.58-0.0209-3.9-0.0317-3.18-0.101-3.18-0.101-5.07 2.23zm220 44c-1.04 2.11-1.04 2.11-1 4h-2c-1.34 2.68-1.21 4.82-1.25 7.81-0.0258 1.04-0.0516 2.08-0.0781 3.14 0.496 4.6 2.35 7.14 5.7 10.2 5.07 3.5 8.45 4.16 14.5 3.29 5.27-1.16 8.17-4.11 11.1-8.47 2.08-5.2 1.39-10.6-0.625-15.7-2.09-4.23-3.9-6.44-8.38-8.31-7.04-1.01-12.4-0.419-18 4zm-400 6c-2.59 4.21-4.02 7.71-3.94 12.7 1.39 4.91 2.63 8.19 6.56 11.6 4.69 2.43 9.22 4.51 14.6 3.22 5.06-2.22 8.45-5.48 10.8-10.5 1.64-5.08 1.11-9.25-0.977-14.1-2.2-4.08-4.49-7.38-9.02-8.89-7.46-0.361-12.5 0.514-18 6zm-3 47c-2.38 2.28-2.38 2.28-4 5-0.557 0.804-1.11 1.61-1.69 2.44-2.29 4.47-2.72 7.29-1.19 12.1 3.08 5.64 6.6 9.05 12.7 11.1 4.66 0.811 8.95-0.278 13-2.7 4.64-3.61 6.93-6.86 7.7-12.7-0.215-5.15-2.46-9.18-5.5-13.2-6.58-5.72-13.5-6.23-21-2zm409 3c-3.29 4.51-3.84 8.54-3.19 14 1.08 4.22 2.69 7.02 6.21 9.65 5.68 3.16 9.51 4.05 15.8 2.35 2.94-1.28 2.94-1.28 5-3v-2c0.629-0.224 1.26-0.449 1.91-0.68 2.29-1.16 2.29-1.16 3.06-3.64 1.11-5.83 1.46-9.78-1.69-15-2.7-3.63-4.94-6.28-9.28-7.72-7.33-0.726-12.8 0.25-17.8 6zm-4.94 49.4c-3.95 4.6-4.66 8.48-4.5 14.4 0.544 4.89 2.35 7.49 6.12 10.5 5.76 3.11 10.8 3.04 17.1 1.69 2.54-1.25 2.54-1.25 4-3v-2c0.639-0.268 1.28-0.536 1.94-0.812 2.39-1.07 2.39-1.07 3.06-4.19 0.779-6.48-0.131-11.7-4-17-7.74-7.02-16.2-6.18-23.8 0.375zm-403 3.13c-3.45 5-3.37 10.6-2.62 16.5 2.36 5.56 6.68 9.28 12 12 3.72 1.31 7.07 1.13 10.9 0.0312 4.6-2.22 7.64-5.62 10.1-10 1.59-6.5 0.546-11.8-2.69-17.6-2.29-3.6-4.46-5.58-8.31-7.44-7.83-1.53-14 0.683-19.4 6.5zm412 24.5 4 1zm-30.9 24.5c-3.73 4.39-4.53 7.59-4.37 13.3 0.441 4.08 1.78 6.85 4.75 9.68 3.98 3.14 7.31 4.56 12.5 4.56 3.18-0.644 6.17-1.4 9-3 0.692-1.32 1.36-2.65 2-4 0.99-0.33 1.98-0.66 3-1 2.54-5.07 2.16-9.62 1-15-1.85-5.17-4.11-7.51-9-10-7.68-2.47-13.1 0.437-18.9 5.5zm-359 6.5c-3.21 5.41-2.51 10.8-1.12 16.8 3.08 4.71 6.86 6.48 12.1 8.25 5 1.02 9.22 0.0914 13.5-2.68 3.39-2.9 5.11-6.09 5.96-10.5 0.41-6.18-1.69-11-5.41-15.9-8.76-7.48-18-3.93-25 4zm33.2 37.4c-3.73 4.35-4.69 7.85-4.49 13.6 0.485 3.97 1.88 6.79 4.89 9.43 5.06 3.74 8.92 5.08 15.3 4.55 2.8-1.12 5.4-2.49 8-4v-3c0.99-0.33 1.98-0.66 3-1 1.9-3.74 2.3-7.56 1.44-11.6-2.06-5.69-4.39-9.03-9.44-12.4-7.52-2.51-12.9-0.667-18.8 4.38zm293 0.938c-3.44 4.31-4.89 6.96-4.62 12.6 0.673 3.89 1.44 6.82 3.81 10.1 5.28 3.59 10.5 6.1 17 5 4.83-1.92 8.14-4.6 11-9 1.65-4.14 1.73-8.88 0.281-13.1-2.02-4.38-4.14-7.25-8.28-9.91-7.45-2.48-13.9-1.51-19.2 4.31zm-41.4 34.6c-2.24 4.99-2.87 8.38-1.31 13.7 2.7 4.7 5.26 7.35 10.3 9.27 4.37 1.15 7.77 1.53 12-0.266 4.3-2.61 6.94-5.92 8.69-10.6 0.868-4.91 0.66-9.36-1.56-13.9-2.98-3.82-5.01-5.18-9.44-7.12-7.2-0.793-14 3.76-18.6 8.94zm-206-1.06c-3.7 5.13-4.81 8.75-4.25 15.1 2.09 5.61 5.11 8.44 10.3 11.2 5.15 1.44 9.64 1.58 14.4-0.812 3.63-2.38 5.91-5.31 7.25-9.44 1.14-6.52 3.24e-4 -11.6-3.52-17.1-2.64-3.3-5.28-4.55-9.43-5.12-6.34-0.326-10.4 1.52-14.8 6.14zm155 18.8c-3.31 4.3-4.38 8.45-4.19 13.9 1.33 5.22 3.52 8.3 7.62 11.8 4.37 2.27 8.39 3.52 13.2 2.11 1.71-0.72 3.36-1.56 5-2.42 0.66-0.33 1.32-0.66 2-1 0.33-0.99 0.66-1.98 1-3 0.99-0.66 1.98-1.32 3-2 1.95-4.78 1.38-9.84-0.188-14.6-2.18-4.06-4.63-7.28-8.81-9.38-1.77-0.122-3.54-0.176-5.31-0.188-0.945-0.0142-1.89-0.0284-2.86-0.043-4.69 0.383-7.18 1.59-10.5 4.92zm-106 3.31c-2.3 4.14-2.58 8.35-2 13 2.2 6.01 5.83 8.55 11 12 4.63 0.634 9.73 1.11 14-0.98 1.8-1.41 1.8-1.41 3.98-4.02 0.598-0.598 1.2-1.2 1.81-1.81 1.78-3.28 2.32-6.5 2.19-10.2-1.21-3.74-1.21-3.74-3-7-0.247-0.722-0.495-1.44-0.75-2.19-2.09-3.02-4.88-4.57-8.25-5.81-7.72-1.22-13.9 0.866-19 7zm53.2 3.94c-4.2 5.72-5.14 10-4.25 17.1 2.34 4.86 5.25 7.48 10 10 4.84 1.58 7.65 0.978 12.1-1.12 6.75-3.65 6.75-3.65 10.6-10.1 1.05-6.03-0.0979-10.4-3.11-15.7-2.85-3.85-5.75-5.67-10.6-6.47-6.27-0.323-10.7 1.61-14.7 6.27zm-39.2 21.1 4 1z" fill="#FBB859"/>
<path transform="translate(758 423)" d="m0 0c0.932-0.00638 1.86-0.0128 2.82-0.0193 1.01-0.00111 2.02-0.00223 3.06-0.00337 1.04-0.00333 2.08-0.00666 3.16-0.0101 2.21-0.00507 4.42-0.00741 6.63-0.00725 3.36-0.00217 6.72-0.0203 10.1-0.0393 2.15-0.00294 4.3-0.00492 6.45-0.00586 0.997-0.00719 1.99-0.0144 3.02-0.0218 5.34 0.0172 10.1 0.481 15.3 1.78 2.56 0.619 5.08 0.875 7.71 1.07 1 0.0793 2.01 0.159 3.04 0.24 1.02 0.0741 2.04 0.148 3.09 0.225 3.04 0.235 6.09 0.47 9.13 0.708 2.02 0.155 4.04 0.302 6.06 0.44 0.97 0.0736 1.94 0.147 2.94 0.223 1.3 0.0917 1.3 0.0917 2.62 0.185 2.49 0.4 4.16 1.21 6.37 2.38 2.54 0.536 5.06 1.01 7.62 1.44 7.04 1.25 13.7 2.99 20.5 5.28 0.705 0.238 1.41 0.477 2.14 0.723 0.731 0.249 1.46 0.498 2.21 0.754 3.09 0.986 6.22 1.83 9.35 2.68 6.66 1.89 12.9 4.29 19.2 7.12 1.08 0.48 2.16 0.959 3.27 1.45 7.96 3.62 15.8 7.54 23.5 11.5 0.954 0.486 1.91 0.972 2.89 1.47 5.67 2.95 10.9 6.21 16.1 9.94 2.74 1.95 5.58 3.68 8.47 5.4 10.4 6.37 20.2 13.3 29.1 21.7 1.99 1.86 4 3.63 6.07 5.39 6.17 5.38 11.9 11.2 17.7 17 2.02 2.03 4.05 4.05 6.07 6.07 16.5 16.5 16.5 16.5 20.9 24 0.611 0.606 1.22 1.21 1.85 1.84 7.74 7.79 13.3 17.9 19.1 27.2 0.443 0.701 0.886 1.4 1.34 2.12 7.97 12.6 15.5 25.5 20.7 39.5 0.844 2.16 1.77 4.24 2.75 6.34 2.63 5.89 4.65 12 6.67 18.1 0.397 1.19 0.793 2.38 1.2 3.61 2.52 7.67 4.73 15.3 6.45 23.2 1.81 6.65 4.26 9.99 10.2 13.4 1.27 0.783 2.54 1.57 3.81 2.35 1.29 0.781 2.59 1.56 3.88 2.34 10.7 6.52 20.4 13.9 30 22 0.586 0.49 1.17 0.981 1.78 1.49 6.31 5.38 12.2 11.2 18 17.1 1.81 1.8 3.63 3.59 5.46 5.38 5.47 5.42 10.5 10.6 14.6 17.2 1.7 2.64 3.92 4.66 6.18 6.83 1.62 2.06 3.17 4.11 4.69 6.25 0.426 0.6 0.851 1.2 1.29 1.82 20 28.7 20 28.7 20 36.9h2c3.16 6.6 5.97 13.3 8.62 20.1 0.289 0.739 0.578 1.48 0.875 2.24 1.75 4.52 3.35 9.08 4.86 13.7 0.545 1.66 1.12 3.3 1.7 4.95 1.01 3.22 1.71 6.44 2.38 9.75 0.512 2.28 0.512 2.28 1.51 4.49 2.05 5.36 2.93 11.1 4.05 16.7 0.201 1.01 0.201 1.01 0.406 2.03 6.97 35.2 8.68 77.3-1.41 112-0.474 2.06-0.91 4.13-1.34 6.2-1.99 9.47-4.56 18.6-7.66 27.8-0.621 1.84-0.621 1.84-1.25 3.72-2.53 7.3-5.43 14.3-8.75 21.3-0.714 1.54-1.43 3.08-2.14 4.62-0.786 1.69-1.57 3.38-2.36 5.06-0.552 1.19-0.552 1.19-1.11 2.41-3.14 6.68-6.91 12.8-11.1 18.9-3.38 5.02-6.55 10.2-9.71 15.3-3.26 5.27-6.93 9.97-11 14.6-2.19 2.48-4.31 4.98-6.38 7.56-0.722 0.825-1.44 1.65-2.19 2.5h-2c-0.217 0.705-0.433 1.41-0.656 2.14-1.67 3.56-4.06 5.98-6.84 8.68-0.499 0.502-0.998 1-1.51 1.52-3.72 3.67-3.72 3.67-5.99 3.67-0.33 0.99-0.66 1.98-1 3-0.959 0.186-0.959 0.186-1.94 0.375-0.681 0.206-1.36 0.412-2.06 0.625-0.247 0.722-0.495 1.44-0.75 2.19-1.65 3.7-4 5.12-7.28 7.38-1.96 1.34-1.96 1.34-3.41 2.88-2.04 2.02-4.28 3.59-6.62 5.24-0.878 0.623-1.76 1.25-2.66 1.89-2.28 1.43-2.28 1.43-4.28 1.43-0.33 0.99-0.66 1.98-1 3-1.46 1.14-1.46 1.14-3.38 2.25-4.44 2.62-8.72 5.44-13 8.3-2.6 1.45-4.68 2.05-7.61 2.45v2c-4.45 1.49-4.45 1.49-9 3v2c-15.3 7.32-30.6 14.4-47 19-1.22 0.387-2.44 0.773-3.7 1.17-39.6 12.5-86.3 17.2-127 8.83-0.33-0.33-0.66-0.66-1-1-1.52-0.297-3.04-0.541-4.57-0.762-10.6-1.61-21.1-3.44-31.4-6.3-0.888-0.245-1.78-0.49-2.69-0.743-6.95-1.98-13.6-4.42-20.2-7.33-2.64-1.1-5.33-2.06-8.02-3.05-24.2-9.27-48-23.9-67.3-41.3-1.74-1.49-3.52-2.77-5.43-4.05-3.24-2.22-5.53-4.84-7.92-7.95-1.39-1.66-1.39-1.66-3.43-2.53-2.43-1.22-3.62-2.62-5.34-4.71-2.3-2.72-4.64-5.32-7.19-7.81-8.89-8.77-16.6-18.6-23.7-28.9-1.99-2.88-4.01-5.75-6.05-8.6-0.967-1.36-0.967-1.36-1.95-2.75-2.82-3.54-5.27-4.51-9.59-5.18-0.952-0.153-1.9-0.307-2.88-0.465-1.01-0.159-2.03-0.317-3.07-0.48-16.2-2.68-31.7-6.96-46.9-13.2-2.25-0.889-4.5-1.68-6.8-2.43-12.7-4.16-25.4-8.82-36.6-16.2-3.37-2.15-6.92-3.96-10.5-5.82-2.34-1.33-4.37-2.8-6.52-4.43-1.66-1.01-3.33-2.01-5-3-24.3-14.9-47.8-34.4-66.3-56.1-1.79-2.02-3.69-3.86-5.64-5.73-3.73-3.69-6.72-7.66-9.73-11.9-1.76-2.45-3.55-4.83-5.41-7.2-6.25-7.98-12-16-17-24.8-1.84-3.26-1.84-3.26-3.9-6.2-1.9-2.91-3.43-5.81-4.95-8.93-1.11-2.25-2.27-4.45-3.46-6.66-6.99-13-12.5-25.9-17.1-40-1.25-3.84-2.51-7.62-4.14-11.3-1.14-2.66-1.89-4.95-2.42-7.78-0.454-2.4-0.969-4.45-1.91-6.71-1.23-3.19-1.84-6.3-2.47-9.66-1.15-6.01-2.46-12-3.91-17.9-0.624-2.98-1.02-5.94-1.38-8.96-0.241-1.94-0.514-3.87-0.792-5.8-1.77-13.4-1.78-26.8-1.73-40.3 0.0107-3.99 5.04e-5 -7.98-0.0127-12-0.01-17.2 0.742-33.7 4.15-50.6 0.256-1.3 0.256-1.3 0.517-2.63 2.18-10.9 4.55-21.8 7.89-32.5 0.809-2.63 1.51-5.29 2.21-7.95 1.24-4.57 2.74-8.98 4.5-13.4 0.445-1.14 0.889-2.27 1.35-3.44 3-7.62 6.12-15.2 9.65-22.6 0.562-1.18 1.12-2.35 1.7-3.57 6.64-13.7 13.9-27.2 22.9-39.5 1.75-2.51 3.03-5.21 4.36-7.95 0.66-0.33 1.32-0.66 2-1 1.01-1.66 2-3.33 3-5 2.29-2.87 4.66-5.67 7.04-8.48 2.12-2.43 2.12-2.43 2.96-5.52 1.63-1.7 3.31-3.36 5-5 2.62-2.87 5.21-5.77 7.79-8.67 2.21-2.33 2.21-2.33 4.21-3.33 0.495-1.49 0.495-1.49 1-3 1.62-1.71 3.3-3.37 5-5 1.17-1.16 2.34-2.33 3.5-3.5 2.83-2.83 5.67-5.67 8.5-8.5 0.911-0.963 0.911-0.963 1.84-1.95 4.15-4.32 7.91-7.23 13.2-10.1 1.37-1.29 2.71-2.62 4-4 1.64-1.37 3.31-2.69 5-4 0.657-0.512 1.31-1.02 1.99-1.55 0.704-0.54 1.41-1.08 2.13-1.64 0.663-0.509 1.33-1.02 2.01-1.54 1.87-1.27 1.87-1.27 4.87-2.27 0.33-0.66 0.66-1.32 1-2 4.94-3 10.1-5.64 15.2-8.31 7.94-4.17 15.7-8.53 23.3-13.3 3.05-1.76 6.18-2.94 9.48-4.16 2.86-1.15 2.86-1.15 4.99-2.33 7.65-4.09 15.7-6.5 23.9-8.93 1.48-0.44 2.96-0.881 4.44-1.32 10.5-3.11 21-6.07 31.6-8.68 1.12-0.282 2.24-0.565 3.39-0.855 12.6-3.05 25.4-4.87 38.2-6.71 8.82-1.57 8.82-1.57 8.9-1.57zm35.5 1.15v1h8v-1h-8zm57 38c-0.339 2.96-0.339 2.96 1.33 4.44 0.634 0.516 1.27 1.03 1.92 1.56 0.746 0.629 1.49 1.26 2.26 1.91 1.23 1.04 1.23 1.04 2.49 2.09 7.8 6.82 15.2 14.1 22.5 21.4 1.05 1.05 2.11 2.09 3.16 3.13 1.5 1.48 3 2.98 4.49 4.47 0.877 0.873 1.75 1.75 2.66 2.64 1.9 2.12 3.01 3.82 4.15 6.39 0.978 1.02 1.98 2.02 3 3 1.92 2.31 3.76 4.67 5.52 7.1 0.53 0.73 1.06 1.46 1.61 2.21 0.498 0.697 0.995 1.39 1.51 2.11 0.451 0.519 0.902 1.04 1.37 1.57h2c0.244 0.7 0.487 1.4 0.738 2.12 1.46 3.33 3.33 5.99 5.45 8.94 3.18 4.42 5.89 8.86 8.44 13.7 2.49 4.32 2.49 4.32 6.69 6.94 5.64-1.05 9.24-4.2 13.7-7.69 1.79-1.3 3.58-2.59 5.38-3.88 5.07-3.7 10.1-7.46 15.1-11.2 1.81-1.34 3.66-2.63 5.53-3.88v-2c0.639-0.103 1.28-0.206 1.94-0.312 0.681-0.227 1.36-0.454 2.06-0.688 0.495-1.49 0.495-1.49 1-3h-2c-0.197-0.55-0.394-1.1-0.598-1.67-1.99-3.3-4.82-5.34-7.84-7.64-0.628-0.486-1.26-0.971-1.9-1.47-5.35-4.09-10.9-7.71-16.7-11.2-1.88-1.21-3.75-2.41-5.62-3.62-3.93-2.5-7.9-4.84-12-7.05-2.87-1.59-5.69-3.27-8.51-4.95-4.21-2.46-8.35-4.55-12.9-6.38-2.13-0.996-4.25-2-6.38-3-4.5-2.09-8.93-3.89-13.7-5.36-1.96-0.641-1.96-0.641-5.14-2.08-6.29-2.8-13.1-4.3-19.8-6.09-4.93-1.36-4.93-1.36-6.04-2.47-2.33-0.0409-4.67-0.0424-7 0zm-153 3.31c-0.716 0.231-1.43 0.461-2.17 0.699-2.03 0.656-4.06 1.32-6.08 1.99-0.843 0.272-1.69 0.544-2.55 0.824-2.16 0.704-4.3 1.43-6.45 2.18-1.65 0.57-1.65 0.57-3.34 1.15-11.4 3.62-11.4 3.62-21.7 9.41-2.45 1.82-4.96 2.63-7.84 3.59-2.55 1.03-4.75 2.42-7.1 3.84-1.61 0.931-3.22 1.86-4.84 2.78-0.9 0.514-1.8 1.03-2.73 1.56-0.928 0.529-1.86 1.06-2.81 1.6-0.92 0.525-1.84 1.05-2.79 1.59-0.902 0.515-1.8 1.03-2.73 1.56-0.872 0.498-1.74 0.996-2.64 1.51-1.54 0.876-3.08 1.75-4.62 2.61-3.02 1.7-5.45 3.28-7.84 5.79-2.19 1.19-2.19 1.19-4 2v2c-0.708 0.236-1.42 0.472-2.14 0.715-3.36 1.51-5.74 3.46-8.54 5.85-5.15 4.36-5.15 4.36-7.31 5.44 0.308 3.23 0.687 4.68 3 7.03 0.844 0.63 1.69 1.26 2.56 1.91 0.913 0.69 1.83 1.38 2.77 2.09 0.882 0.651 1.76 1.3 2.67 1.97 0.655 0.517 1.31 1.03 1.98 1.57 5.98 4.69 12.5 8.53 19 12.4 0.914 0.574 1.83 1.15 2.77 1.74 2.09 1.43 2.09 1.43 4.23 1.26v2c2.97 0.99 2.97 0.99 6 2 3.57-5 7.04-10 10.2-15.2 3.28-5.22 6.98-10 10.8-14.8 2.85-3.53 5.4-7.16 7.91-10.9 3.43-4.53 6.89-9.06 11-13l2-2v-2c0.99-0.33 1.98-0.66 3-1 1.89-1.79 1.89-1.79 3.69-3.94 0.623-0.71 1.25-1.42 1.89-2.15 1.63-1.78 1.63-1.78 1.43-3.91 0.563-0.233 1.13-0.467 1.71-0.707 2.85-1.61 4.72-3.61 6.98-5.98 3.9-4 7.88-7.47 12.4-10.7 2.06-1.7 3.49-3.31 4.91-5.57v-3c-4.58-0.328-8.46 0.894-12.8 2.31zm13.8-2.31c0.33 0.99 0.66 1.98 1 3v-3h-1zm86 1v19h-2c-0.0293 4-0.0469 8-0.0625 12-0.00838 1.13-0.0168 2.25-0.0254 3.41-0.00322 1.1-0.00645 2.2-0.00977 3.34-0.00524 1.01-0.0105 2.01-0.0159 3.05 0.0639 3.3 0.0639 3.3 0.615 6.9 0.526 4.11 0.627 8.18 0.597 12.3-0.00146 0.757-0.00292 1.51-0.00443 2.29-0.00378 1.63-0.00986 3.26-0.0181 4.88-0.0129 2.58-0.0193 5.15-0.0241 7.73-0.0114 5.46-0.0306 10.9-0.051 16.4-0.0236 6.35-0.044 12.7-0.0559 19-0.00648 2.54-0.019 5.08-0.0317 7.62-0.00363 1.55-0.00698 3.1-0.01 4.65-0.00517 0.706-0.0103 1.41-0.0157 2.14-3.3e-4 3.03 0.145 5.33 1.11 8.23 3.63 0.888 6.54 1.01 10.2 0.512 0.985-0.13 1.97-0.259 2.99-0.393 1.02-0.142 2.04-0.285 3.09-0.432 1.01-0.131 2.01-0.262 3.05-0.396 4.97-0.671 9.77-1.51 14.6-2.81 4.93-1.17 10-1.68 15-2.34 0.857-0.12 1.71-0.24 2.6-0.363 0.771-0.102 1.54-0.205 2.34-0.311 2.34-0.411 2.34-0.411 5.05-2.47 2.22-0.472 4.45-0.879 6.69-1.25 7.85-1.43 15-4.01 22.4-6.98 1.9-0.756 3.81-1.48 5.72-2.2 6.34-2.31 6.34-2.31 12.2-5.57-1.57-4.56-3.99-8.24-6.69-12.2-0.451-0.666-0.901-1.33-1.37-2.02-0.903-1.33-1.81-2.66-2.71-3.99-1.03-1.51-2.05-3.03-3.06-4.55-6.42-9.49-14.1-18-21.7-26.6-1.44-1.68-1.44-1.68-3-3.9-0.474-0.589-0.949-1.18-1.44-1.79h-2c-0.214-0.54-0.428-1.08-0.648-1.64-1.84-3.21-4.35-5.61-6.98-8.18-0.817-0.805-0.817-0.805-1.65-1.63-3.37-3.3-6.79-6.51-10.4-9.56-2.03-1.73-4.03-3.5-6.02-5.27-1.36-1.2-2.71-2.4-4.07-3.6-0.651-0.585-1.3-1.17-1.97-1.77-0.623-0.547-1.25-1.09-1.89-1.66-0.557-0.495-1.11-0.99-1.69-1.5-1.89-1.32-3.45-1.78-5.7-2.2v-2c-1.3-0.913-2.61-1.81-3.96-2.66-3.55-2.33-6.88-4.97-10.3-7.54-3.14-2.2-3.14-2.2-8.78-3.8zm-35.9 1.93c-1.05 0.744-1.05 0.744-2.12 1.5-0.79 0.553-1.58 1.11-2.39 1.68-1.29 0.934-1.29 0.934-2.61 1.89-0.932 0.674-1.86 1.35-2.82 2.04-1.89 1.38-3.78 2.76-5.66 4.14-1.93 1.4-3.87 2.73-5.89 4-2.91 2.01-5.15 4.28-7.62 6.81-3.74 3.38-7.56 6.66-11.5 9.81-0.825 0.722-1.65 1.44-2.5 2.19v2c-0.557 0.248-1.11 0.495-1.69 0.75-5.25 2.84-8.85 6.87-12.7 11.4-1.65 1.9-1.65 1.9-4.09 4.27-1.79 1.49-1.79 1.49-1.56 3.62h-2c-0.0825 0.619-0.165 1.24-0.25 1.88-0.247 0.701-0.495 1.4-0.75 2.12-0.843 0.35-0.843 0.35-1.7 0.707-3.48 1.96-5.42 4.95-7.8 8.11-0.948 1.24-1.9 2.47-2.84 3.71-0.455 0.599-0.911 1.2-1.38 1.82-1.08 1.4-2.18 2.79-3.29 4.16-2.51 3.16-4.88 6.41-7.23 9.69-0.459 0.628-0.918 1.26-1.39 1.9-2.51 3.14-2.51 3.14-3.36 6.91-1.49 0.495-1.49 0.495-3 1-2.27 3.77-2.27 3.77-3 8 17.1 7.65 34.5 14.8 53.2 17.5 2.87 0.469 5.61 1.14 8.43 1.89 11.5 2.95 23.2 4.53 34.9 5.81 0.828 0.0922 1.66 0.184 2.51 0.28 1.97 0.202 3.95 0.342 5.93 0.47 1.24-1.02 1.24-1.02 1.12-3.17-9.22e-4 -0.965-0.00184-1.93-0.00279-2.92 0.00137-1.1 0.00275-2.21 0.00417-3.34-0.0036-1.22-0.00719-2.44-0.0109-3.7 1.46e-4 -1.28 2.92e-4 -2.56 4.43e-4 -3.87 2.88e-4 -3.51-0.00561-7.03-0.0126-10.5-0.00623-3.67-0.00684-7.34-0.00803-11-0.00311-6.95-0.0113-13.9-0.0213-20.9-0.0112-7.91-0.0167-15.8-0.0217-23.7-0.0105-16.3-0.0281-32.6-0.0503-48.8-2.86-1.35-2.86-1.35-4.88-0.0664zm4.88 7.07 1 4zm-207 78.1c-4.55 4.75-8.99 9.85-12.4 15.5-1.42 2.34-1.42 2.34-2.82 3.74-1.73 1.74-3.1 3.55-4.52 5.55-0.55 0.766-1.1 1.53-1.67 2.32-0.568 0.797-1.14 1.59-1.72 2.42-1.12 1.57-2.24 3.13-3.36 4.7-0.551 0.77-1.1 1.54-1.67 2.33-1.6 2.21-3.24 4.38-4.9 6.55-2.12 2.81-3.95 5.6-5.57 8.73-1.78 3.37-3.58 6.71-5.46 10-0.399 0.7-0.797 1.4-1.21 2.12-0.784 1.37-1.57 2.75-2.36 4.12-2.36 4.15-4.35 8.32-6.16 12.7-0.411 0.976-0.822 1.95-1.25 2.96-1.26 3.01-2.51 6.03-3.75 9.04-0.342 0.815-0.683 1.63-1.04 2.47-5.89 14.3-11.1 29.6-13.5 44.9-0.492 2.6-0.492 2.6-1.48 5.89-1.1 4.04-1.63 7.93-2.07 12.1-0.808 7.5-0.808 7.5-1.94 8.62-0.157 1.63-0.251 3.27-0.316 4.91-0.0419 0.989-0.0838 1.98-0.127 3-0.0393 1.04-0.0786 2.08-0.119 3.15l-0.131 3.17c-0.106 2.59-0.208 5.18-0.307 7.77 3.36 1.68 7.15 1.14 10.8 1.13 0.916 0.00175 1.83 0.0035 2.77 0.00531 3.04 0.00441 6.07 0.00148 9.11-0.00189 2.1 6.73e-4 4.2 0.00164 6.31 0.0029 4.41 0.00148 8.82-6.75e-4 13.2-0.00534 5.67-0.0057 11.3-0.00242 17 0.00357 4.34 0.0036 8.68 0.00247 13-1.28e-4 2.09-6.69e-4 4.18 1.59e-4 6.27 0.00248 2.91 0.00253 5.83-0.00131 8.74-0.0069 1.31 0.00304 1.31 0.00304 2.64 0.00613 3.84 0.365 3.84 0.365 7.07-1.14 0.265-1.97 0.469-3.94 0.648-5.92 0.116-1.24 0.233-2.48 0.353-3.76 0.0606-0.663 0.121-1.33 0.184-2.01 1.69-18.3 4.09-36.3 7.75-54.3 0.361-1.79 0.361-1.79 0.73-3.62 1.67-7.96 3.81-15.7 6.33-23.4 0.272-0.841 0.544-1.68 0.823-2.55 4.13-12.7 8.85-25.2 14.2-37.5 1.27-3.07 2.53-6.13 3.79-9.2 1.21-2.8 1.21-2.8 3.09-6.18 1.47-3.43 1.18-5.07 0.125-8.62-2.41-2.23-2.41-2.23-5.44-3.88-0.989-0.596-1.98-1.19-3-1.8-2.38-1.47-2.38-1.47-4.57-1.32v-2c-1.81-1.15-3.64-2.29-5.48-3.4-6.41-4.06-12.4-8.85-18.3-13.6-0.626-0.5-1.25-1-1.9-1.52-1.22-0.977-2.43-1.96-3.64-2.95-5.11-4.1-7.69-6.17-12.9-1.4zm438-3.14v2c-0.722 0.227-1.44 0.454-2.19 0.688-2.73 1.27-4.14 2.58-6.16 4.75-4.53 4.29-9.93 7.97-15.3 11.1-2.16 1.33-3.57 2.66-5.34 4.45-1.68 1.16-3.39 2.29-5.12 3.38-0.969 0.612-1.94 1.22-2.94 1.86-3.34 2.01-6.76 3.82-10.3 5.53-1.84 1.13-1.84 1.13-2.5 3.25-0.277 3 1.22 4.45 2.82 6.99 0.653 1.53 1.28 3.06 1.88 4.61 1.3 3.31 2.62 6.61 3.98 9.9 4.3 10.5 8.09 21 11.4 31.8 0.31 0.974 0.621 1.95 0.94 2.95 0.269 0.868 0.537 1.74 0.814 2.63 0.873 2.45 0.873 2.45 3.95 4.11 2.29 0.315 4.59 0.523 6.89 0.676 1.43 0.104 2.86 0.208 4.29 0.313 0.754 0.0524 1.51 0.105 2.29 0.159 12.9 0.912 25.6 2.26 38.4 4.42 1.25 0.21 2.5 0.42 3.79 0.636 5.04 0.887 9.61 1.8 14.3 3.8 4.64 1.29 9.16 2.31 14 2 0.33 0.66 0.66 1.32 1 2 2.27 0.95 2.27 0.95 4.94 1.69 0.896 0.272 1.79 0.544 2.71 0.824 2.36 0.743 2.36 0.743 4.35-0.512-0.216-0.538-0.432-1.08-0.655-1.63-1.01-2.52-2.02-5.04-3.03-7.56-0.369-0.917-0.737-1.83-1.12-2.78-1.97-4.91-3.87-9.82-5.7-14.8-8.64-22.6-22-44-36.5-63.2-0.55-0.733-1.1-1.47-1.67-2.22-3.54-4.64-7.26-9.13-11-13.6-0.696-0.827-0.696-0.827-1.41-1.67-1.29-1.52-2.6-3.02-3.91-4.52-0.687-0.788-1.37-1.58-2.08-2.39-2.01-2.04-2.01-2.04-5.92-1.61zm-353 52c-2.3 2.86-3.56 6.11-4.96 9.47-0.622 1.46-1.24 2.93-1.87 4.39-0.301 0.711-0.603 1.42-0.913 2.15-1.05 2.43-2.2 4.82-3.34 7.21-3.49 7.6-6.02 15.6-8.72 23.5-0.939 2.7-1.95 5.38-2.97 8.05-3.49 9.56-5.92 19.4-7.32 29.5-0.492 2.68-0.492 2.68-1.48 5.48-1.25 3.97-1.67 7.82-2.07 12-0.814 8-0.814 8-1.94 10.2-1.12 9.64-1.12 19.3-1 29 6.94 1.29 13.9 1.16 20.9 1.18 1.41 0.00627 2.82 0.0129 4.23 0.0199 4.61 0.0209 9.22 0.0314 13.8 0.0414 1.59 0.00405 3.18 0.00817 4.77 0.0124 7.47 0.019 14.9 0.0333 22.4 0.0416 8.61 0.00979 17.2 0.0362 25.8 0.0765 6.67 0.0302 13.3 0.045 20 0.0483 3.98 0.00235 7.95 0.0113 11.9 0.0365 3.74 0.0233 7.48 0.0275 11.2 0.0172 2.02-7.31e-4 4.04 0.0184 6.07 0.0381 7.02 0.12 7.02 0.12 13.5-2.1 5.1-5.43 4.56-12.4 4.54-19.4 0.00511-0.981 0.0102-1.96 0.0155-2.97 0.0138-3.23 0.0129-6.45 0.0106-9.68 0.00389-2.25 0.00822-4.49 0.013-6.74 0.00745-4.7 0.00718-9.4 0.00191-14.1-0.00581-6.03 0.0112-12.1 0.0343-18.1 0.0147-4.64 0.0156-9.27 0.0125-13.9 5.14e-4 -2.22 0.00577-4.45 0.0158-6.67 0.0123-3.1 0.00562-6.2-0.00601-9.31 0.00764-0.923 0.0153-1.85 0.0232-2.8-0.00701-0.844-0.014-1.69-0.0213-2.56 1.68e-4 -0.733 3.35e-4 -1.47 5.08e-4 -2.22-0.489-2.51-1.35-3.39-3.37-4.93-3.35-0.662-3.35-0.662-7.23-0.879-0.709-0.0576-1.42-0.115-2.15-0.175-2.27-0.183-4.54-0.347-6.81-0.509-2.25-0.168-4.5-0.34-6.75-0.52-1.4-0.111-2.8-0.215-4.2-0.311-4.83-0.373-9.19-1.36-13.9-2.61-1.57-0.337-3.15-0.661-4.73-0.965-0.815-0.159-1.63-0.317-2.47-0.48-0.84-0.162-1.68-0.325-2.55-0.492-12-2.36-23.6-5.33-35.2-9.06-0.758-0.242-1.52-0.484-2.3-0.733-2.47-0.79-4.93-1.59-7.39-2.39-0.791-0.254-1.58-0.507-2.4-0.769-5.69-1.88-5.69-1.88-7.92-4.11-1.64-0.761-3.31-1.46-5-2.12-0.887-0.353-1.77-0.706-2.69-1.07-3.02-1.11-3.02-1.11-5.73 0.227zm265 2.72c-1.35 0.555-2.7 1.11-4.05 1.66-0.662 0.272-1.32 0.544-2.01 0.825-7.82 3.18-15.7 5.65-23.9 7.77-2.4 0.646-4.79 1.29-7.19 1.94-2.6 0.691-5.21 1.38-7.81 2.06-0.694 0.182-1.39 0.365-2.1 0.553-2.11 0.551-4.22 1.09-6.33 1.63-1.89 0.485-1.89 0.485-3.81 0.98-2.77 0.614-5.36 1.06-8.16 1.38-3.4 0.0521-3.4 0.0521-4.59 1.45-2.59 0.337-5.16 0.619-7.76 0.867-1.61 0.165-3.22 0.33-4.83 0.496-2.54 0.257-5.09 0.511-7.63 0.756-2.45 0.239-4.9 0.492-7.35 0.748-1.13 0.103-1.13 0.103-2.28 0.209-4.78 0.511-9.58 1.36-13.1 4.92-0.0944 2.27-0.117 4.54-0.114 6.81-1.46e-4 0.712-2.92e-4 1.42-4.43e-4 2.16 6.99e-4 2.36 0.00849 4.73 0.0163 7.09 0.00186 1.64 0.00329 3.27 0.00429 4.91 0.00383 4.31 0.0137 8.62 0.0247 12.9 0.0102 4.4 0.0148 8.79 0.0198 13.2 0.0107 8.63 0.0278 17.3 0.0488 25.9 3.46 0.978 3.46 0.978 6.77 0.145 0.529-0.44 1.06-0.879 1.6-1.33 2.39-1.88 4.7-3.49 7.38-4.94 3.11-1.61 3.11-1.61 4.75-3.38 2.44-2.44 5.5-3.87 8.5-5.5 0.819-0.455 1.64-0.91 2.48-1.38 5.8-3.21 11.7-6.24 17.6-9.18 1.85-0.918 3.7-1.85 5.54-2.79 0.824-0.422 1.65-0.843 2.5-1.28 0.704-0.364 1.41-0.727 2.13-1.1 8.05-3.74 16.3-6.44 24.8-8.84 2.05-0.583 4.11-1.17 6.16-1.75 0.983-0.281 1.97-0.561 2.98-0.85 2.53-0.753 5.01-1.58 7.5-2.45 4.27-1.45 8.53-2.26 13-2.95 3.9-0.612 7.62-1.21 11.4-2.47 4.53-1.5 9.16-1.8 13.9-2.31 3.35-0.355 3.35-0.355 5.05-3.66-0.643-1.71-1.31-3.41-2.09-5.06-0.889-1.9-1.6-3.79-2.27-5.78l-0.682-2.01c-0.234-0.69-0.468-1.38-0.708-2.09-3.93-11.4-8.69-22.4-14.2-33.1-4.29 0-7.2 1.12-11.1 2.75zm35.1 69.2c-2.06 0.326-4.12 0.608-6.19 0.867-1.26 0.164-2.51 0.327-3.81 0.496-2.64 0.339-5.28 0.671-7.91 1-7.32 0.96-14.1 2.33-21.1 4.64-1.33 0.366-2.67 0.721-4.01 1.06-1.82 0.464-1.82 0.464-3.68 0.938-1.22 0.309-2.44 0.619-3.7 0.938-3.7 1.09-7.08 2.51-10.6 4.06-2.52 0.951-5.04 1.89-7.56 2.81-10.6 3.96-21 8.2-31 13.8-2.34 1.3-4.7 2.48-7.11 3.63-3.42 1.35-3.42 1.35-4.38 3.75-1.98 1.03-3.99 2.03-6 3-2.24 1.31-4.47 2.64-6.69 4-1.68 1.02-1.68 1.02-3.39 2.06-2.34 1.55-4.06 2.9-5.93 4.94-1.42 1.19-2.83 2.37-4.26 3.55-7.68 6.4-7.68 6.4-14.7 13.5v2c-0.722 0.227-1.44 0.454-2.19 0.688-3.4 1.59-5.26 3.57-7.81 6.31-1.14 1.08-1.14 1.08-2.31 2.19-3.18 3.33-5.99 6.88-8.82 10.5-1.87 2.3-1.87 2.3-3.35 3.77-5.11 5.16-18.5 20.1-18.5 27.5h-2c-0.66 1.98-1.32 3.96-2 6h-2c-5.91 10.8-11.3 21.7-16.1 33-0.747 1.74-1.52 3.46-2.29 5.19-3.41 7.78-5.73 15.8-8.02 23.9-0.454 1.55-0.969 3.08-1.5 4.61-3.06 9.52-4.67 18.9-5.67 28.9-0.239 2.31-0.481 4.61-0.727 6.91-0.152 1.5-0.152 1.5-0.307 3.04-0.341 2.42-0.341 2.42-1.34 4.42-0.0993 2.68-0.14 5.33-0.133 8.02-9.57e-4 0.807-0.00191 1.61-0.0029 2.45-6.82e-4 1.72 0.00117 3.44 0.00534 5.15 0.00526 2.58 9.93e-5 5.16-0.00635 7.74-0.00423 9.6 0.277 19.1 1.14 28.6 0.102 1.24 0.102 1.24 0.205 2.51 0.915 10.8 2.82 21.1 5.79 31.5 0.265 0.937 0.53 1.87 0.803 2.84 5.22 20 5.22 20 13.1 39.1 1.31 2.52 2.47 5.1 3.63 7.69 5.06 11.2 11.4 21.4 17.9 31.8 0.411 0.655 0.822 1.31 1.25 1.98 0.392 0.622 0.785 1.24 1.19 1.89 0.958 1.55 1.86 3.14 2.76 4.73 0.437 0.666 0.874 1.33 1.32 2.02h2c0.247 0.743 0.495 1.49 0.75 2.25 1.38 3.03 2.89 4.43 5.25 6.75 1.52 1.8 3.02 3.61 4.5 5.44 0.753 0.927 1.51 1.85 2.28 2.81 1.49 1.84 2.94 3.71 4.38 5.6 0.608 0.71 1.22 1.42 1.84 2.15h2c0.383 0.872 0.383 0.872 0.773 1.76 3.77 6.87 11.3 12.2 17.2 17.2 0.552 0.466 1.1 0.931 1.67 1.41 9.37 7.88 18.9 15.1 29.3 21.6 0.661 0.413 1.32 0.827 2 1.25 17.1 10.6 35.3 19.1 54.3 25.8 1.8 0.645 3.6 1.31 5.38 2 6.03 2.31 12 3.95 18.3 5.32 2.28 0.5 4.54 1.09 6.79 1.71 5.35 1.38 10.9 1.84 16.4 2.47 4.2 0.513 8.34 1.18 12.5 1.99 4.8 0.684 9.6 0.843 14.4 1.04 0.969 0.0432 1.94 0.0864 2.94 0.131 11.5 0.482 22.9 0.319 34.4-0.568l3.49-0.238c1.11-0.0838 2.21-0.168 3.35-0.254 0.992-0.0733 1.98-0.147 3.01-0.222 2.63-0.407 4.34-1.15 6.65-2.41 2.34-0.309 2.34-0.309 4.94-0.438 5.53-0.409 10.7-1.52 16.1-2.84 1.78-0.435 3.58-0.838 5.38-1.18 16.1-3.4 33.1-9.74 47.6-17.5 1.6-0.772 3.21-1.54 4.81-2.31 13.3-6.68 25.8-15.4 37.6-24.5 1.49-1.12 3.04-2.16 4.59-3.19v-2c0.726-0.244 1.45-0.487 2.2-0.738 3.15-1.42 5.1-3.09 7.61-5.45 3.08-2.86 6.17-5.67 9.38-8.38 3.44-2.98 6.37-6.24 9.27-9.74 1.54-1.7 1.54-1.7 4.54-3.7v-3c0.599-0.261 1.2-0.522 1.81-0.792 2.33-1.29 3.51-2.48 5.17-4.54 0.524-0.652 1.05-1.3 1.59-1.98 0.534-0.681 1.07-1.36 1.62-2.06 0.546-0.673 1.09-1.35 1.65-2.04 2.98-3.54 2.98-3.54 4.63-7.75 0.174-0.606 0.347-1.21 0.526-1.84 0.99-0.33 1.98-0.66 3-1 0.977-1.62 1.94-3.24 2.83-4.91 1.27-2.27 2.69-4.38 4.17-6.53 2.32-3.44 4.29-6.89 6.04-10.6 0.957-1.92 0.957-1.92 2.39-4.32 5.44-9.06 9.51-18.9 13.6-28.6 0.36-0.84 0.719-1.68 1.09-2.55 7.69-18.4 15.5-41.8 14.8-61.9 0.109-3.37 1.15-6.3 2.08-9.53 1.79-14.5 1.37-29.3 0.125-43.8-0.0784-0.949-0.157-1.9-0.238-2.88-0.126-1.34-0.126-1.34-0.255-2.7-0.0733-0.793-0.147-1.59-0.222-2.4-0.313-2.25-0.313-2.25-1.45-4.26-1.29-2.6-1.03-4.95-0.958-7.8-0.00954-3.49-0.621-6.84-1.26-10.3-0.135-0.74-0.27-1.48-0.409-2.24-1.33-7.02-3.21-13.8-5.34-20.6-0.483-1.59-0.966-3.18-1.45-4.78-0.516-1.68-1.03-3.36-1.55-5.04-0.237-0.776-0.474-1.55-0.718-2.35-1.72-5.47-3.87-10.6-6.28-15.8-0.495-1.12-0.99-2.24-1.5-3.39-7.2-15.8-15.4-31.4-25.5-45.6-1.03-1.48-2.07-2.96-3.1-4.44-7.36-10.5-7.36-10.5-16.1-19.9-1.98-1.86-3.7-3.85-5.46-5.91-2.55-2.97-5.19-5.37-8.31-7.75-1.67-1.66-3.34-3.33-5-5-9.77-9.36-19.9-17.3-31.5-24.4-2.51-1.64-2.51-1.64-5.14-3.75-2.64-2.11-5.35-3.41-8.37-4.89-1.33-1-2.67-2-4-3-1.99-1.02-3.99-2.01-6-3-1.22-0.621-2.44-1.24-3.66-1.87-7.99-4.06-16-7.86-24.3-11.1-0.679-0.273-1.36-0.547-2.06-0.828-5.2-2.03-10.5-3.61-15.9-5.21-3.05-0.965-3.05-0.965-5.46-1.99-3.39-1.27-6.85-1.86-10.4-2.47-4.06-0.708-8.03-1.46-12-2.53-4.95-1.28-9.96-1.63-15-2.04-1.87-0.154-3.75-0.311-5.62-0.473-0.818-0.0658-1.64-0.132-2.48-0.199-2.03-0.265-2.03-0.265-4.03-1.27-1.47-0.0946-2.94-0.128-4.42-0.129-0.914-0.00315-1.83-0.0063-2.77-0.00955-0.99 0.00202-1.98 0.00405-3 0.00613-1.01-9.57e-4 -2.03-0.00191-3.07-0.0029-2.15-6.81e-4 -4.29 0.00117-6.44 0.00534-3.29 0.00535-6.58 5.32e-5 -9.88-0.00635-2.08 6.61e-4 -4.16 0.00194-6.24 0.00391-1.48-0.00304-1.48-0.00304-3-0.00613-0.914 0.00315-1.83 0.0063-2.77 0.00955-1.21 0.00119-1.21 0.00119-2.44 0.00241-2.05 0.00352-2.05 0.00352-3.97 1.13zm-465 101c-0.00892 2.88 0.096 5.64 0.312 8.5 0.0549 0.816 0.11 1.63 0.166 2.47 0.162 2.34 0.339 4.69 0.521 7.03 0.0748 1.05 0.15 2.09 0.227 3.17 0.295 3.53 0.727 6.67 1.71 10.1 0.987 3.48 1.52 6.73 2 10.3 1.28 9.36 2.73 18.8 6.32 27.5 0.851 2.17 1.52 4.36 2.18 6.59 0.251 0.844 0.503 1.69 0.762 2.56 0.56 1.93 1.1 3.86 1.63 5.79 2.1 7.35 4.98 13.9 8.5 20.7 1.44 2.84 2.66 5.63 3.79 8.6 1.54 4 3.39 7.64 5.53 11.3 1.46 2.54 2.84 5.13 4.22 7.71 2.62 4.81 5.47 9.44 8.45 14 1.55 2.4 3.02 4.83 4.48 7.28 0.722 1.09 1.44 2.19 2.19 3.31h2c0.247 0.722 0.495 1.44 0.75 2.19 1.38 3.1 3.1 5.2 5.25 7.81 0.639 0.804 1.28 1.61 1.94 2.44 4.32 5.36 8.76 10.6 13.4 15.7 0.503 0.568 1.01 1.14 1.53 1.72 1.96 2.15 3.67 3.92 6.33 5.16 2.88-0.0184 4.35-1.88 6.38-3.74 1.68-1.47 3.45-2.3 5.45-3.27 1.02-0.979 2.02-1.98 3-3 0.99-0.66 1.98-1.32 3-2v-2c1.14-0.402 1.14-0.402 2.31-0.812 2.65-1.17 3.73-2.14 5.69-4.19 1.65-1.02 3.32-2.02 5-3 7.02-4.3 14-8.62 21-13-0.409-7.23-2.88-12.5-6-19-8-17-13.6-34.3-18.7-52.5-0.735-2.63-1.51-5.19-2.38-7.78-3.32-10.1-4.71-20.9-6.56-31.3-0.243-1.36-0.243-1.36-0.491-2.75-0.143-0.812-0.286-1.62-0.434-2.46-0.279-1.45-0.601-2.9-0.972-4.33-0.752-3.13-0.755-6.34-0.899-9.55-0.334-6.46-0.854-12.9-1.56-19.3l-0.252-2.35c-0.403-3.98-0.403-3.98-1.75-7.71-12.2-0.0463-24.4-0.0818-36.7-0.104-5.67-0.0105-11.3-0.0246-17-0.0473-5.47-0.0217-10.9-0.0337-16.4-0.0389-2.09-0.00371-4.18-0.0109-6.27-0.0217-2.92-0.0144-5.84-0.0165-8.76-0.0156-1.31-0.0108-1.31-0.0108-2.64-0.0218-4.58-0.197-4.58-0.197-8.21 2.25zm129-2c-2.32 3.48-2.17 4.41-1.83 8.45 0.0863 1.09 0.173 2.17 0.261 3.29 0.104 1.16 0.209 2.31 0.317 3.5 0.1 1.18 0.2 2.35 0.303 3.57 0.991 11.3 1.97 22.4 5.23 33.4 0.842 3.3 1.29 6.56 1.72 9.94 0.738 5.62 2 10.6 4 15.9 1.42 4.22 2.8 8.45 4.17 12.7 0.639 1.96 1.28 3.91 1.92 5.86 0.433 1.32 0.864 2.65 1.29 3.98 2.62 8.13 5.57 15.9 9.27 23.6 2 4.26 3.61 8.64 5.16 13.1 0.74 2.08 0.74 2.08 2.19 4.79 2.34 0.999 3.59 1.11 6.06 0.427 0.718-0.321 1.44-0.643 2.18-0.974 0.804-0.351 1.61-0.701 2.44-1.06 0.832-0.376 1.66-0.753 2.52-1.14 7.41-3.29 14.8-6.1 22.6-8.31 4.25-1.17 4.25-1.17 8.25-2.94 1.56-3.27 2.37-6.39 2.93-9.96 0.153-0.94 0.307-1.88 0.465-2.85 0.238-1.49 0.238-1.49 0.48-3.01 2.07-12.4 4.48-24.5 9.12-36.2 0.514-1.66 1.01-3.33 1.5-5 5.9-20 15.7-39.2 26.9-56.7 0.371-0.583 0.742-1.17 1.12-1.77 1.02-1.58 2.05-3.15 3.08-4.72 1.54-2.97 1.56-4.5 1.43-7.77-16.3-0.07-32.5-0.123-48.8-0.155-7.55-0.0155-15.1-0.0366-22.7-0.0709-6.58-0.0299-13.2-0.0492-19.7-0.0559-3.49-0.00392-6.97-0.0132-10.5-0.0349-3.89-0.0241-7.77-0.0248-11.7-0.0234-1.16-0.0108-2.32-0.0216-3.52-0.0327-1.05 0.00412-2.11 0.00825-3.2 0.0125-0.92-0.00277-1.84-0.00553-2.79-0.00838-1.09 0.183-1.09 0.183-2.2 0.369zm126 1 1 2zm496 123 1 4zm-556 40.3c-4.5 2.15-8.99 4-13.7 5.69 0.569 4.55 2.38 7.64 4.81 11.5 0.687 1.1 1.37 2.21 2.08 3.34 1.91 2.86 3.94 5.49 6.11 8.16 1.3 1.81 2.59 3.62 3.88 5.44 3.09 4.28 6.25 7.98 10.1 11.6 0.99-0.495 0.99-0.495 2-1-0.133-0.629-0.266-1.26-0.402-1.91-0.869-4.21-1.68-8.38-2.16-12.7-0.0589-3.26-0.0589-3.26-1.44-4.44-0.0754-1.99-0.0831-3.98-0.0625-5.97 0.00773-1.21 0.0155-2.42 0.0234-3.67 0.026-2.58 0.0521-5.15 0.0781-7.73 0.00773-1.21 0.0155-2.42 0.0234-3.67 0.0116-1.12 0.0232-2.24 0.0352-3.39 0.197-2.51 0.197-2.51-1.1-3.58-4.08-0.378-6.67 0.527-10.3 2.31zm11.3 17.7v8h1v-8h-1zm-60.3 5.44c-0.874 0.541-1.75 1.08-2.65 1.64-1 0.634-2.01 1.27-3.04 1.92-0.589 0.369-1.18 0.739-1.79 1.12-1.89 1.18-3.77 2.37-5.65 3.57-0.603 0.38-1.21 0.76-1.83 1.15-2.89 1.85-5.32 3.73-7.74 6.16-1.1 0.873-2.22 1.73-3.36 2.56-0.622 0.469-1.24 0.937-1.88 1.42-1.3 0.977-2.61 1.95-3.93 2.91-2.11 1.56-2.11 1.56-4.83 4.12-0.43 3.98-0.43 3.98 1.88 6.23 11.3 10.1 24 17.9 37 25.6 1.47 0.864 2.94 1.73 4.41 2.6 14.4 8.54 28.7 15.1 44.4 20.8 4.59 1.67 9.16 3.33 13.6 5.32 2.91 1.2 5.76 2.28 8.75 3.25 0.807 0.263 1.61 0.526 2.45 0.797 2.77 0.517 4.72 0.165 7.43-0.547-1.3-5.27-3.77-8.3-7.62-11.9-0.541-0.525-1.08-1.05-1.64-1.59-3.5-3.38-7.11-6.61-10.8-9.77-7.28-6.43-14.5-13.6-19.9-21.7h-2c-0.254-0.563-0.508-1.13-0.77-1.71-1.39-2.6-3.05-4.7-4.92-6.98-0.721-0.891-1.44-1.78-2.18-2.7-1.26-1.55-2.52-3.09-3.79-4.63-4.72-5.88-8.85-12.1-13-18.4-1.44-2.19-2.9-4.38-4.35-6.56-0.453-0.697-0.907-1.39-1.37-2.11-1.13-1.68-2.37-3.29-3.63-4.89-3.44 0-4.44 0.654-7.31 2.44zm606 5.56 1 2z" fill="#FBB859"/>
<path transform="translate(527 1044)" d="m0 0c0.998-0.0329 2-0.0657 3.03-0.0996 8.15-0.059 12.8 2.08 18.7 7.53 8.6 10.3 10.8 18.6 9.83 32-3.19 20.4-13.6 41.3-26.7 57.1-5.89 7.97-5.01 17-5.18 26.5-0.177 4.9-1.08 9.64-2.09 14.4-0.131 0.758-0.263 1.52-0.398 2.3-1.97 10.5-6.88 19.8-12.6 28.7-0.396 0.645-0.791 1.29-1.2 1.95-0.873 1.39-1.83 2.73-2.8 4.05h-2c-0.268 0.639-0.536 1.28-0.812 1.94-1.19 2.06-1.19 2.06-4.19 3.06-0.33 0.66-0.66 1.32-1 2-0.33 0.66-0.66 1.32-1 2-0.99 0.33-1.98 0.66-3 1-0.309 0.639-0.619 1.28-0.938 1.94-1.32 2.57-2.48 2.89-5.06 4.06-0.434 0.455-0.869 0.91-1.32 1.38-13 12.5-36.1 17.6-53.5 17.7-9.56 0.0878-15.4 0.494-23 7.06-3 2.51-5.44 3.2-9.25 3.88v2c-2.05 1.15-4.11 2.3-6.17 3.43-2.01 1.11-4.01 2.23-6.01 3.35-6.16 3.41-12 6.41-18.8 8.21-0.927 0.277-1.85 0.554-2.81 0.84-6.57 1.78-12.8 2.44-19.6 2.47-0.749 0.0054-1.5 0.0108-2.27 0.0164-8.14-0.104-14.8-2.04-20.9-7.64-0.825-0.887-1.65-1.77-2.5-2.69l-2.69-2.69c-4.86-5.96-4.89-14.9-4.31-22.3 1.16-10.5 4.35-21.1 10-30 0.454-0.908 0.908-1.82 1.38-2.75 2.97-5.94 6.19-11.7 9.75-17.3 0.477-0.754 0.954-1.51 1.45-2.29 0.472-0.545 0.944-1.09 1.43-1.65h3c0.543 1.02 1.09 2.05 1.64 3.11 0.723 1.36 1.45 2.72 2.17 4.08 0.356 0.674 0.713 1.35 1.08 2.04 3.82 7.41 3.82 7.41 9.11 13.8 1.48 2.97 1.36 4.66 1 8-1.89 4.5-4.25 8.75-6.75 12.9-1.86 4.56-2 9.18-2.25 14.1 14.2-1.56 14.2-1.56 26-9 0.866-0.309 1.73-0.619 2.62-0.938 2.57-0.812 2.57-0.812 3.19-3.19 0.0619-0.619 0.124-1.24 0.188-1.88-0.837-0.362-0.837-0.362-1.69-0.73-4.7-2.58-8.4-6.64-12.3-10.3-0.889-0.756-0.889-0.756-1.8-1.53-1.39-1.22-1.39-1.22-3.2-3.47 0.674-10.1 12-20.6 18.2-28.1 4.12-5 8.02-10.1 11.9-15.3 6.78-8.99 6.78-8.99 9.94-10.6 0.392-0.722 0.784-1.44 1.19-2.19 1.63-2.52 2.8-3.77 5.06-5.62 3.39-2.78 6.16-5.84 8.99-9.17 2.76-3.17 5.76-6.08 8.76-9.02 0.761-0.767 1.52-1.53 2.3-2.32 3.01-2.99 6.09-5.91 9.2-8.8 0.556-0.525 1.11-1.05 1.68-1.59 2.4-2.23 4.6-4.15 7.41-5.84 2.95-1.77 5.01-3.98 7.41-6.45 2.05-1.82 4.1-3.61 6.19-5.38 0.565-0.478 1.13-0.955 1.71-1.45 5.99-5 12.1-9.69 19.1-13.2 0.454-0.454 0.908-0.908 1.38-1.38 3.64-3.64 7.87-5.81 12.6-7.62 12.3 11.9 12.3 11.9 16 18v2c1.9 0.0122 1.9 0.0122 4-1 1.41-2.24 2.53-4.31 3.62-6.69 0.299-0.613 0.598-1.23 0.906-1.86 1.79-3.74 3.24-7.5 4.47-11.5 0.557-1.73 0.557-1.73 1.12-3.5 0.838-3.35 0.942-6.07 0.875-9.5-3.05 0.9-6.09 1.82-9.12 2.75-0.856 0.253-1.71 0.505-2.59 0.766-5.06 1.56-8.9 3.44-13.3 6.48-4.11 1.22-7.7 1.67-11.6-0.312-1.44-1.69-1.44-1.69-1.44-3.69-0.908-0.268-1.82-0.536-2.75-0.812-3.25-1.19-3.25-1.19-5.09-2.59-2.51-1.86-5.05-3.02-7.91-4.28-0.985-0.437-1.97-0.874-2.98-1.32-0.748-0.326-1.5-0.652-2.27-0.988v-3c3.71-3.71 8.38-5.93 13-8.36 3.04-1.65 5.95-3.45 8.89-5.27 6.11-3.6 12.3-5.57 19.1-7.38 1.05-0.356 2.09-0.712 3.17-1.08 5.12-1.23 10-1.33 15.3-1.36zm-144 196 1 2z" fill="#FBB859"/>
<path transform="translate(1226 314)" d="m0 0c1.41-0.0115 2.82-0.0318 4.22-0.0615 13-0.274 21.7 2.05 31.8 10.4 0.866 0.639 1.73 1.28 2.62 1.94 7.88 6.84 7.88 6.84 8.86 11.2 0.17 0.608 0.34 1.22 0.516 1.84 1.48 0.495 1.48 0.495 3 1 2.36 3.81 4.13 7.93 6 12 0.387 0.811 0.773 1.62 1.17 2.46 5.31 12 6.09 24.3 6.14 37.2 0.00548 1.12 0.011 2.23 0.0166 3.38-0.0835 9.79-0.544 20.1-4.64 29.1-0.433 0.968-0.866 1.94-1.31 2.93-2.07 4.32-4.16 8.63-6.38 12.9h-2c-0.364 1.08-0.364 1.08-0.734 2.19-5.26 11.7-18.2 20.4-29.7 25-5.95 1.93-11.8 2.01-18 2.02-0.82 0.0122-1.64 0.0245-2.49 0.0371-12.5 0.0299-22.6-5.49-32.1-13.2-0.623-0.454-1.25-0.908-1.89-1.38-14.5-11.3-22.5-30.3-25.7-47.9-1.28-11.8-1.04-23.9 0.91-35.6 0.176-1.06 0.176-1.06 0.356-2.14 1.41-7.55 4.34-14.3 7.77-21.1 0.864-1.74 0.864-1.74 1.75-3.51 2.47-4.59 5.01-8.78 8.82-12.4 0.879-1.1 1.75-2.2 2.62-3.31 10.1-11.8 23.6-14.9 38.4-15z" fill="#FBB859"/>
<path transform="translate(464,1069)" d="m0 0c-1.85 1.85-3.71 3.32-5.81 4.88-2.41 1.78-4.75 3.59-7.06 5.5-2.12 1.62-2.12 1.62-4.12 1.62-0.495 1.48-0.495 1.48-1 3-1.33 0.667-2.67 1.33-4 2-1.69 1.64-3.35 3.31-5 5-5.5 5-5.5 5-8 5-0.33 0.99-0.66 1.98-1 3-1.78 1.82-1.78 1.82-3.94 3.69-0.71 0.623-1.42 1.25-2.15 1.89-1.91 1.43-1.91 1.43-3.91 1.43-0.249 0.587-0.498 1.17-0.754 1.78-1.42 2.53-2.96 3.93-5.18 5.79-2.95 2.47-2.95 2.47-5.69 5.15-1.37 1.29-1.37 1.29-3.37 1.29-0.33 0.99-0.66 1.98-1 3-1.67 1.33-3.33 2.67-5 4-1.56 1.71-3.03 3.48-4.52 5.25-2.05 2.41-4.15 4.61-6.48 6.75h-2c-0.224 0.544-0.449 1.09-0.68 1.65-1.72 3.07-4.03 5.45-6.45 7.98-4.39 4.67-8.44 9.49-12.3 14.6-0.772 0.874-0.772 0.874-1.56 1.77h-2c-0.66 1.65-1.32 3.3-2 5h-2c-0.66 1.65-1.32 3.3-2 5h-2c-0.255 0.715-0.51 1.43-0.773 2.17-1.31 3.03-2.92 5.46-4.85 8.14-0.947 1.32-0.947 1.32-1.91 2.68-0.723 0.996-0.723 0.996-1.46 2.01-0.33-1.32-0.66-2.64-1-4h-2c-2.76-8.21-3.35-15.4-3-24 0.0212-1.56 0.0407-3.12 0.0586-4.68 0.291-14.3 2.67-27.8 9.94-40.3 0.476-0.892 0.951-1.78 1.44-2.7 3.85-7.22 7.58-13.6 13.6-19.3 0.784-0.804 1.57-1.61 2.38-2.44 3.09-3.01 6.32-5.8 9.62-8.56 0.846-0.722 1.69-1.44 2.56-2.19 22.6-16.8 59.9-23.5 86.4-12.8zm-125 104 1 2z" fill="#FBB859"/>
<path transform="translate(827,346)" d="m0 0c3.42 0.11 6.83 0.241 10.2 0.375 0.968 0.0309 1.94 0.0619 2.93 0.0938 1.4 0.058 1.4 0.058 2.83 0.117 0.859 0.0314 1.72 0.0628 2.6 0.0952 2.54 0.34 4.12 1.16 6.38 2.32 2.36 0.492 2.36 0.492 4.89 0.746 0.939 0.115 1.88 0.231 2.85 0.35 1.95 0.226 3.9 0.45 5.85 0.672 5.42 0.668 10.3 1.68 15.5 3.53 2.51 0.9 5.05 1.53 7.65 2.14 9.61 2.34 19.1 4.92 28.3 8.56 1.49 0.495 1.49 0.495 3 1v2h2c-0.617 4.25-1.58 8.18-2.94 12.2-0.509 1.55-0.509 1.55-1.03 3.14-1.04 2.61-1.04 2.61-3.04 4.61-0.673 1.97-0.673 1.97-1.12 4.12-0.289 1.28-0.577 2.56-0.875 3.88-1.83-0.26-3.67-0.534-5.5-0.812-1.02-0.151-2.04-0.302-3.09-0.457-3.3-0.707-6.19-1.72-9.32-2.94-3.47-1.31-7.02-2.32-10.6-3.35-0.708-0.208-1.42-0.416-2.14-0.631-7.39-2.15-14.8-3.97-22.4-5.37-0.66-0.126-1.32-0.251-2-0.381-3.47-0.648-6.93-1.18-10.4-1.58-3.56-0.473-3.56-0.473-4.56-1.47-1.33-0.201-2.66-0.346-4-0.465-0.804-0.078-1.61-0.156-2.44-0.236-1.71-0.158-3.42-0.311-5.12-0.461-1.21-0.119-1.21-0.119-2.44-0.24-0.742-0.067-1.49-0.134-2.25-0.203-0.866-0.195-0.866-0.195-1.75-0.395-1.59-3.18-0.865-6.54-0.625-10 0.0744-1.15 0.0744-1.15 0.15-2.32 1.06-15.8 1.06-15.8 2.47-18.7z" fill="#FBB859"/>
<path transform="translate(414,568)" d="m0 0c5.3 0.532 9.02 2.36 13.6 4.94 4.08 2.27 8.04 4.45 12.4 6.06 1.55 6.31 0.264 9.72-2.69 15.4-0.748 1.51-1.5 3.02-2.24 4.52-0.361 0.713-0.721 1.43-1.09 2.16-2.88 5.71-5.2 11.5-7.15 17.5-0.906 2.61-1.98 5.12-3.08 7.65-2.41 5.71-4.46 11.5-6.44 17.4-0.297 0.87-0.595 1.74-0.901 2.64-1.94 5.85-3.34 11.7-4.41 17.7-4.05 1.35-7.46 0.474-11.6-0.25-1.21-0.21-1.21-0.21-2.45-0.424-13.1-2.35-13.1-2.35-17-4.33-1.21-3.63-0.364-4.7 1.18-8.03 1.39-3.32 2.02-6.78 2.76-10.3 1.26-5.63 2.7-10.9 5-16.2 1.27-3 2.35-6.05 3.43-9.12 1.89-5.32 3.8-10.6 5.75-15.9 0.242-0.667 0.483-1.33 0.732-2.02 1.39-3.75 3.07-7.01 5.14-10.4 0.853-2.35 1.55-4.71 2.25-7.11 0.746-1.89 0.746-1.89 2.75-2.89 1.05-2.31 2.05-4.65 3-7 0.33-0.66 0.66-1.32 1-2z" fill="#FBB859"/>
<path transform="translate(543,420)" d="m0 0c3.35 1.12 3.72 1.64 5.59 4.46 0.473 0.701 0.946 1.4 1.43 2.12 0.729 1.11 0.729 1.11 1.47 2.23 0.968 1.44 1.94 2.89 2.91 4.33 0.451 0.678 0.901 1.36 1.37 2.05 0.962 1.41 1.99 2.78 3.04 4.13 1.88 2.66 1.71 4.53 1.19 7.68-2.35 2.35-4.77 3.87-7.62 5.56-2.39 1.32-2.39 1.32-4.06 3.12-0.433 0.433-0.866 0.866-1.31 1.31h-2c-0.33 0.99-0.66 1.98-1 3-1.36 0.949-2.72 1.89-4.12 2.77-2.23 1.46-4.33 3.04-6.44 4.67-0.723 0.556-1.45 1.11-2.19 1.68-2.58 2.16-4.89 4.47-7.25 6.88-2.39 2.44-4.79 4.88-7.19 7.31-0.628 0.645-1.26 1.29-1.9 1.96-0.904 0.914-0.904 0.914-1.83 1.85-0.816 0.832-0.816 0.832-1.65 1.68-1.43 1.21-1.43 1.21-3.43 1.21-0.278 1.05-0.278 1.05-0.562 2.12-1.72 3.44-3.8 5.1-6.78 7.45-1.91 1.52-1.91 1.52-3.66 4.43-4.95-1.31-7.72-3.21-11.4-6.75-4.34-4.1-8.75-7.81-13.6-11.2 0.489-4.2 1.46-5.88 4.75-8.5 0.723-0.596 1.45-1.19 2.19-1.8 0.679-0.559 1.36-1.12 2.06-1.7 1.69-1.65 3.36-3.31 5-5l15-15c0.513-0.536 1.03-1.07 1.55-1.62 3.85-3.97 7.9-7.4 12.3-10.7 3.59-2.73 7.06-5.52 10.2-8.75 1.94-1.88 1.94-1.88 4.21-3.23 3.97-2.39 7.54-5.27 11.2-8.1 0.833-0.51 1.67-1.02 2.52-1.55z" fill="#FBB859"/>
<path transform="translate(370,759)" d="m0 0c3.95-0.0247 7.9-0.0429 11.9-0.0549 2.01-0.00751 4.01-0.0202 6.02-0.033 1.89-0.00483 1.89-0.00483 3.81-0.00977 1.74-0.00786 1.74-0.00786 3.52-0.0159 2.8 0.114 2.8 0.114 4.8 1.11 0.359 2.93 0.59 5.78 0.746 8.72 0.0566 0.893 0.113 1.79 0.172 2.71 0.242 3.82 0.463 7.65 0.684 11.5 0.705 12 1.96 23.4 4.4 35.1 0.697 4.13 1.3 8.27 1.9 12.4 0.541 3.58 1.19 6.91 2.19 10.4 0.91 3.19 0.91 3.19 0.91 7.19-0.797 0.193-1.59 0.387-2.41 0.586-6.39 1.54-6.39 1.54-12.6 3.54-4.65 1.39-11.4 3.12-15.9 0.875-0.381-1.99-0.713-3.99-1-6-0.33-0.66-0.66-1.32-1-2-1.6-7.27-2.55-14.7-3.54-22-0.388-3.01-0.388-3.01-1.46-5.97-3.13-19.2-3.28-38.6-3-58z" fill="#FBB859"/>
<path transform="translate(721 348)" d="m0 0c0.967 0.018 1.93 0.0361 2.93 0.0547 1.09 0.0348 1.09 0.0348 2.2 0.0703 1.82 4.84 2.58 9.4 3.12 14.5 0.0864 0.733 0.173 1.47 0.262 2.22 0.464 4.11 0.705 8.13 0.613 12.3-0.568 0.121-1.14 0.242-1.72 0.367-0.772 0.168-1.54 0.335-2.34 0.508-0.754 0.162-1.51 0.325-2.29 0.492-1.89 0.451-3.76 0.977-5.62 1.55-6.87 1.99-14 2.93-21.1 4.14-6.32 1.13-12 2.46-18 4.94-5.31 1.9-10.7 3.49-16.1 5-3.77 1.05-7.39 2.1-10.9 3.75-4.96 2.11-4.96 2.11-7.94 1.25-3.77-4.25-5.69-9.39-7.3-14.8-0.698-2.25-1.55-4.38-2.45-6.55-1.23-3.62-1.35-4.31-0.25-7.69 0.759-0.193 1.52-0.387 2.3-0.586 1.49-0.391 1.49-0.391 3.01-0.789 0.986-0.255 1.97-0.51 2.99-0.773 2.88-0.771 2.88-0.771 5.7-2.85 2.22-0.681 4.46-1.3 6.71-1.88 0.652-0.17 1.3-0.34 1.98-0.515 2.08-0.542 4.16-1.08 6.25-1.61 2.08-0.534 4.16-1.07 6.24-1.61 1.89-0.491 3.78-0.976 5.67-1.46 3.04-0.789 3.04-0.789 5.21-1.97 2.62-1.29 5.16-1.68 8.04-2.18 1.77-0.315 1.77-0.315 3.57-0.637 1.23-0.213 2.45-0.425 3.72-0.645 2.43-0.423 4.85-0.85 7.27-1.28 1.61-0.279 1.61-0.279 3.26-0.564 13.3-2.82 13.3-2.82 15-2.78z" fill="#FBB858"/>
<path transform="translate(1012,414)" d="m0 0c7.83 5.1 15.4 10.5 23 16 0.798 0.553 1.6 1.11 2.42 1.68 0.783 0.655 0.783 0.655 1.58 1.32v2c0.674 0.192 1.35 0.384 2.04 0.582 4.14 1.99 7 4.93 10.3 8.11 1.34 1.28 2.68 2.56 4.03 3.83 0.637 0.608 1.27 1.22 1.93 1.84 3.86 3.66 7.92 7.09 12 10.5 14 12.2 14 12.2 14.8 18.1-1.02 1.58-1.02 1.58-2.61 3.09-0.572 0.556-1.14 1.11-1.73 1.68-0.61 0.568-1.22 1.14-1.85 1.72-0.591 0.568-1.18 1.14-1.79 1.72-1.15 1.11-2.31 2.2-3.48 3.29-1.69 1.58-1.69 1.58-3.59 3.89-1.95 1.59-1.95 1.59-4.74 2.29-4.9-1.05-7.27-4.15-10.6-7.75-1.33-1.39-2.66-2.77-3.99-4.15-0.63-0.661-1.26-1.32-1.91-2-3.59-3.71-7.51-7.01-11.5-10.2-1.43-1.15-2.81-2.35-4.19-3.55v-2c-0.696-0.222-1.39-0.443-2.11-0.672-3.57-1.64-6.24-3.99-9.14-6.58-4.36-3.8-8.73-7.23-13.6-10.4-2.44-1.6-4.8-3.28-7.14-5.02-1.11-0.824-1.11-0.824-2.25-1.66-1.97-1.93-2.55-2.97-2.75-5.71 1.64-2.4 3.36-4.4 5.49-6.38 1.74-1.87 2.73-3.73 3.88-6 2.11-3.94 4.29-6.67 7.62-9.62z" fill="#FBB859"/>
<path transform="translate(951 948)" d="m0 0c1.21-0.0171 1.21-0.0171 2.45-0.0345 8.47-0.111 16.9-0.158 25.4-0.201 4.02-0.0223 8.04-0.064 12.1-0.123 4.85-0.0711 9.7-0.108 14.6-0.12 1.85-0.0104 3.7-0.0328 5.54-0.0676 16.3-0.291 16.3-0.291 20.8 4.07 4.29 5.63 5.36 10.7 4.44 17.7-1.74 3.24-3.42 5.42-6 8-3.86 1.06-7.64 1.18-11.6 1.28-1.28 0.0374-2.57 0.0748-3.89 0.113-1.35 0.0356-2.7 0.0707-4.04 0.105-10.6 0.258-10.6 0.258-21.1 1.03-8.83 0.801-17.7 0.578-26.6 0.535-1.82-0.00503-3.65-0.00959-5.47-0.0137-4.43-0.0109-8.85-0.0281-13.3-0.0488-2.42-4.26-3.36-7.13-3.11-12 0.0503-1.1 0.101-2.21 0.152-3.35 0.0683-1.14 0.137-2.28 0.207-3.45 0.0529-1.16 0.106-2.31 0.16-3.51 0.496-9.82 0.496-9.82 9.3-9.91z" fill="#FBB859"/>
<path transform="translate(942,885)" d="m0 0c11-0.0463 22.1-0.0819 33.1-0.104 5.12-0.0104 10.2-0.0246 15.4-0.0473 4.94-0.0217 9.88-0.0337 14.8-0.0389 1.89-0.0037 3.77-0.0109 5.66-0.0217 2.64-0.0145 5.28-0.0165 7.92-0.0156 1.18-0.0108 1.18-0.0108 2.38-0.0218 3.8 0.0145 5.53 0.0876 8.77 2.25v2c0.619 0.268 1.24 0.536 1.88 0.812 2.12 1.19 2.12 1.19 4.12 4.19 0.794 5.72 1.06 11.3-2.31 16.2-4.06 4.25-7.21 3.96-12.9 4.09-1.05 0.0276-1.05 0.0276-2.12 0.0558-2.99 0.0785-5.97 0.146-8.96 0.215-2.18 0.0518-4.36 0.109-6.55 0.167-1.31 0.0303-2.61 0.0606-3.96 0.0918-3.24 0.0498-3.24 0.0498-6.23 1.19-2.39 0.0963-4.78 0.131-7.17 0.133-0.712 9.57e-4 -1.42 0.00191-2.16 0.0029-1.52 6.81e-4 -3.03-0.00117-4.55-0.00534-2.26-0.00525-4.52-1.07e-4 -6.78 0.00635-7.47 0.00471-14.9-0.127-22.4-0.52-1.31-0.0685-2.63-0.137-3.98-0.208-0.981-0.135-1.96-0.27-2.97-0.41-1.41-2.82-1.11-5.17-1.1-8.32 0.00322-1.26 0.00645-2.51 0.00977-3.81 0.00838-1.32 0.0168-2.64 0.0254-4 0.00502-1.34 0.00958-2.68 0.0137-4.02 0.0118-3.29 0.0283-6.57 0.0488-9.86z" fill="#FBB859"/>
<path transform="translate(1008,1194)" d="m0 0c1.06 1.88 1.06 1.88 2 4-0.33 0.66-0.66 1.32-1 2h2v-3c0.99 0.495 0.99 0.495 2 1 0.33 0.99 0.66 1.98 1 3l1 2c0.552-0.164 1.1-0.327 1.67-0.496 2.59-0.562 4.93-0.601 7.58-0.566 0.892 0.00902 1.78 0.018 2.7 0.0273 0.675 0.0116 1.35 0.0232 2.05 0.0352 0.33 0.66 0.66 1.32 1 2h6v5c-0.99 0.33-1.98 0.66-3 1 0.33 0.66 0.66 1.32 1 2-7.82 2.05-15.6 3.49-23.6 4.62-0.857 0.123-1.71 0.246-2.6 0.372-12.1 1.67-24.1 2.24-36.3 2.25-0.807 2e-3 -1.61 0.00401-2.45 0.00607-14.3 0.00868-28.9-0.389-43-3.26-0.33-0.33-0.66-0.66-1-1-1.52-0.297-3.04-0.541-4.57-0.762-0.968-0.147-1.94-0.293-2.93-0.444-1.05-0.159-2.1-0.318-3.18-0.481-12-1.9-23.6-4.84-35.3-8.31 3.75-2 3.75-2 6-2 0.33-0.66 0.66-1.32 1-2 2.06-0.625 2.06-0.625 4-1v-2c0.99 0.33 1.98 0.66 3 1v5h-3c3.81 1.47 6.09 2.3 10 1h4v-2c4.52-0.0765 8.59-0.102 13 1v2c0.99 0.33 1.98 0.66 3 1-0.33 0.33-0.66 0.66-1 1 2.64 0.66 5.28 1.32 8 2v3c6.88-0.251 6.88-0.251 13.1-2.88 2.21-2.03 2.21-2.03 1.88-5.12 3.18-1.06 4.79-0.953 8.06-0.562 3.46 0.417 3.46 0.417 6.94 0.562v-4c-0.99-0.495-0.99-0.495-2-1 3.38-1.13 4.77-0.818 8.19-0.0625 0.901 0.195 1.8 0.389 2.73 0.59 0.687 0.156 1.37 0.312 2.08 0.473-0.495-1.98-0.495-1.98-1-4 3.1-0.922 5.72-1.05 8.94-0.938 7.01 0.0781 13.9-0.631 20.9-1.35 0.874-0.0903 1.75-0.181 2.65-0.274 0.782-0.0838 1.56-0.168 2.37-0.254 2.06-0.172 4.13-0.184 6.19-0.184z" fill="#F6B357"/>
<path transform="translate(780,501)" d="m0 0h1v10h3c-0.33-2.31-0.66-4.62-1-7l2-1c1.12 7.62 1.12 7.62 0 11 0.742-0.227 1.49-0.454 2.25-0.688 2.75-0.312 2.75-0.312 4.93 0.648 1.82 2.04 1.82 2.04 2.06 5.84-0.101 1.51-0.224 3.01-0.367 4.51-0.0735 1.12-0.0735 1.12-0.148 2.26-0.343 4.44-1.23 8.21-2.73 12.4 0.256 2.69 0.732 4.51 2.03 6.87 1.08 2.38 1.21 3.93 1.19 6.53-1.51e-4 0.861-3.02e-4 1.72-4.58e-4 2.61-0.0103 0.92-0.0206 1.84-0.0313 2.79-0.00283 0.949-0.00566 1.9-0.00858 2.88-0.0112 3.03-0.0363 6.05-0.0617 9.08-0.01 2.05-0.0192 4.11-0.0273 6.16-0.022 5.03-0.0566 10.1-0.0977 15.1-5.34 2.3-7.51 1.67-13 0v-4c-1.09 0.165-2.19 0.33-3.31 0.5-3.69 0.5-3.69 0.5-6.69 0.5v-3h-2v-2c-0.99-0.33-1.98-0.66-3-1v-12c1.49-0.495 1.49-0.495 3-1v5c1.49-0.495 1.49-0.495 3-1 0.33-0.99 0.66-1.98 1-3h-2c-0.907-4.33-0.983-8.09-0.562-12.5 0.555-6.14 0.609-12.2 0.562-18.4-0.079-11.7 0.384-23.4 1-35.1 2.64-0.33 5.28-0.66 8-1v-2z" fill="#F7B457"/>
<path transform="translate(477,1219)" d="m0 0c2.72 0.231 5.31 0.556 8 1 1.33 0.19 2.67 0.378 4 0.562 0.99 0.144 1.98 0.289 3 0.438v4h-2v3c0.928-0.351 1.86-0.701 2.81-1.06 3.19-0.938 3.19-0.938 6.19 0.0625-0.99 0.33-1.98 0.66-3 1-0.309 0.639-0.619 1.28-0.938 1.94-1.32 2.57-2.48 2.89-5.06 4.06-0.652 0.683-0.652 0.683-1.32 1.38-16 15.4-42.3 18-63.3 17.7-1.69-0.0348-1.69-0.0348-3.41-0.0703 0.33-0.928 0.66-1.86 1-2.81 1.15-3.11 1.15-3.11 1-6.19v-2c0.626-0.049 1.25-0.098 1.9-0.148 0.817-0.0748 1.63-0.15 2.48-0.227 1.22-0.104 1.22-0.104 2.46-0.211 2.37-0.243 2.37-0.243 4.16-2.41 0.99-0.33 1.98-0.66 3-1-0.66-0.598-1.32-1.2-2-1.81-2-2.19-2-2.19-2-5.19 4.29-0.66 8.58-1.32 13-2v-2c2.31 0.33 4.62 0.66 7 1v6c1.3-1.07 1.3-1.07 1.06-3.56-0.0206-0.804-0.0412-1.61-0.0625-2.44 1.32 0.33 2.64 0.66 4 1-0.33 1.32-0.66 2.64-1 4 0.99-0.66 1.98-1.32 3-2v5c6.57 0.343 6.57 0.343 12-3 2.75 0.312 2.75 0.312 5 1 0.33-1.65 0.66-3.3 1-5h-2c-0.389-1.29-0.761-2.58-1.12-3.88-0.209-0.719-0.418-1.44-0.633-2.18-0.0799-0.642-0.16-1.28-0.242-1.95 0.66-0.66 1.32-1.32 2-2z" fill="#F7B457"/>
<path transform="translate(1008,1194)" d="m0 0c1.06 1.88 1.06 1.88 2 4-0.33 0.66-0.66 1.32-1 2h2v-3c0.66 0.33 1.32 0.66 2 1 0.495 1.48 0.495 1.48 1 3l1 2c0.552-0.164 1.1-0.327 1.67-0.496 2.59-0.562 4.93-0.601 7.58-0.566 0.892 0.00902 1.78 0.018 2.7 0.0273 0.675 0.0116 1.35 0.0232 2.05 0.0352 0.495 0.99 0.495 0.99 1 2h6v5c-0.99 0.33-1.98 0.66-3 1 0.495 0.99 0.495 0.99 1 2-7.94 2.08-15.9 3.52-24 4.69-0.908 0.131-1.82 0.262-2.75 0.398-10.6 1.47-10.6 1.47-15.2-0.0852-2.4-0.687-4.7-1.1-7.19-1.44-2.91-0.429-5.75-0.909-8.62-1.5-0.749-0.153-1.5-0.307-2.27-0.465-1.92-0.598-1.92-0.598-3.92-2.6-0.972-3.36-1.11-5.68 0-9 3.47-1.1 6.51-1.05 10.1-0.812 1.05 0.0554 2.11 0.111 3.2 0.168 2.68 0.645 2.68 0.645 4.05 2.7 0.209 0.643 0.418 1.29 0.633 1.95 1.65-0.33 3.3-0.66 5-1v-3c0.99-0.66 1.98-1.32 3-2h-3-5c0.33-1.32 0.66-2.64 1-4 2.42-0.337 4.83-0.669 7.25-1 1.02-0.143 1.02-0.143 2.07-0.289 3.28-0.445 6.37-0.711 9.68-0.711z" fill="#F7B457"/>
<path transform="translate(827,346)" d="m0 0c3.42 0.11 6.83 0.241 10.2 0.375 0.968 0.0309 1.94 0.0619 2.93 0.0938 1.4 0.058 1.4 0.058 2.83 0.117 0.859 0.0314 1.72 0.0628 2.6 0.0952 2.53 0.339 4.14 1.13 6.38 2.32 2.41 0.441 4.82 0.811 7.25 1.12 1.26 0.168 2.53 0.335 3.83 0.508 0.964 0.121 1.93 0.242 2.92 0.367v3h-3c-0.33 0.66-0.66 1.32-1 2-1.62 1.25-1.62 1.25-4 2-3.75-0.875-3.75-0.875-7-2v2l2 1h-2c0.33 0.99 0.66 1.98 1 3-2.36 2.36-3.78 2.49-7 3 1.15 2.47 2.05 4.05 4 6v4c0.613 1.69 1.27 3.36 2 5-2.33 0.0424-4.67 0.0409-7 0l-1-1c-1.33-0.201-2.66-0.346-4-0.465-0.804-0.078-1.61-0.156-2.44-0.236-1.71-0.158-3.42-0.311-5.12-0.461-1.21-0.119-1.21-0.119-2.44-0.24-0.742-0.067-1.49-0.134-2.25-0.203-0.866-0.195-0.866-0.195-1.75-0.395-1.59-3.18-0.865-6.54-0.625-10 0.0744-1.15 0.0744-1.15 0.15-2.32 1.06-15.8 1.06-15.8 2.47-18.7z" fill="#F6B356"/>
<path transform="translate(624,943)" d="m0 0c4.46 0.99 4.46 0.99 9 2-0.33 0.99-0.66 1.98-1 3 0.66 0.33 1.32 0.66 2 1 0.75 2.94 0.75 2.94 1 6-2.21 2.21-3.06 2.3-6 3-6.58 3.09-12.5 7.31-18.5 11.4-2.5 1.57-2.5 1.57-4.5 1.57-0.33 0.99-0.66 1.98-1 3-1.33 0.921-2.67 1.83-4.04 2.68-3.45 2.32-6.59 5.05-9.79 7.71-2.17 1.61-2.17 1.61-4.17 1.61v-6c1.49-0.495 1.49-0.495 3-1 0.33-2.31 0.66-4.62 1-7-0.99 0.33-1.98 0.66-3 1-0.99-0.99-1.98-1.98-3-3 0.66-0.66 1.32-1.32 2-2 0.99 0.66 1.98 1.32 3 2 0.99-0.33 1.98-0.66 3-1-0.33-1.32-0.66-2.64-1-4 0.99 0.33 1.98 0.66 3 1v-2h2v2c2.16-2.16 3.48-4.37 5-7 0.66 0.33 1.32 0.66 2 1 0.124-0.928 0.124-0.928 0.25-1.88 0.75-2.12 0.75-2.12 2.56-3.25 1.45-0.581 2.91-1.14 4.38-1.69 2.09-1.09 2.09-1.09 2.56-3.81 0.0825-0.784 0.165-1.57 0.25-2.38l6.05-0.488c2.34-0.386 2.34-0.386 3.95-3.51z" fill="#F7B457"/>
<path transform="translate(782,651)" d="m0 0c1.32 0.33 2.64 0.66 4 1 0.33 1.98 0.66 3.96 1 6h1c0.495 6.93 0.495 6.93 1 14v-3.88-9.12h4v28c-2.64 0.33-5.28 0.66-8 1v2h4c1 6.75 1 6.75 1 9-1.11 0.268-2.23 0.536-3.38 0.812-3.84 0.846-3.84 0.846-5.62 4.19h-2c0.599 4.03 0.599 4.03 1.69 7.94 0.494 3.26-0.679 5.98-1.69 9.06-2.33 0.0424-4.67 0.0409-7 0-1.8-1.8-1.17-4.45-1.19-6.88-0.0142-1.07-0.0284-2.14-0.043-3.24 0.23-2.88 0.23-2.88 2.23-5.88 0.66 0.33 1.32 0.66 2 1v8h2c-0.278-1.05-0.278-1.05-0.562-2.12-0.438-2.88-0.438-2.88 0.043-5.39 0.843-5.66 0.483-11.3 0.305-17.1-0.0142-0.911-0.0284-1.82-0.043-2.76-0.0331-1.24-0.0331-1.24-0.0669-2.5 0.401-2.69 1.18-3.56 3.32-5.17h2c-0.351-0.598-0.701-1.2-1.06-1.81-0.938-2.19-0.938-2.19 0.0625-5.19 0.068-1.73 0.085-3.46 0.0625-5.19-0.00902-0.901-0.018-1.8-0.0273-2.73-0.0116-0.687-0.0232-1.37-0.0352-2.08-1.32-0.66-2.64-1.32-4-2 0.33-2.31 0.66-4.62 1-7h3c0.33-0.66 0.66-1.32 1-2z" fill="#F7B457"/>
<path transform="translate(1246,889)" d="m0 0c1.5 1.38 1.5 1.38 3 3v2c0.99 0.33 1.98 0.66 3 1 2.26 9.2 2.16 18.2 2.01 27.6-0.0203 1.51-0.0203 1.51-0.041 3.05-0.018 0.903-0.0359 1.81-0.0544 2.74 0.0834 2.63 0.493 5.02 1.08 7.58-0.99 0.66-1.98 1.32-3 2-0.66-0.66-1.32-1.32-2-2-0.99 0.495-0.99 0.495-2 1-0.66-0.66-1.32-1.32-2-2h-3c-0.33 0.66-0.66 1.32-1 2-1.36-4.92-2-8.89-2-14-0.641-2.01-1.31-4.01-2-6-0.35-2.33-0.686-4.66-1-7-0.33-0.66-0.66-1.32-1-2 0.312-2.06 0.312-2.06 1-4l2-1v-6h6c0.33-2.64 0.66-5.28 1-8z" fill="#F7B457"/>
<path transform="translate(701,938)" d="m0 0h4c2.09 3.4 2.18 6.05 2 10h2c0.714 7.93 1.11 15.8 1.12 23.8 0.00451 0.786 0.00902 1.57 0.0137 2.38-0.0148 5.62-0.0148 5.62-1.14 7.87h-6c0.0348-1.01 0.0348-1.01 0.0703-2.05 0.018-0.892 0.0361-1.78 0.0547-2.7 0.0232-0.882 0.0464-1.76 0.0703-2.67-0.204-2.69-0.83-4.28-2.2-6.58-1.32 0.33-2.64 0.66-4 1-0.33-0.66-0.66-1.32-1-2-0.99 0.33-1.98 0.66-3 1-0.33-1.98-0.66-3.96-1-6 0.99-0.33 1.98-0.66 3-1-0.99-0.526-0.99-0.526-2-1.06-2-1.94-2-1.94-2.44-5.12 0.486-4.24 1.34-8.07 3.44-11.8 3-2 3-2 6-3 0.33-0.66 0.66-1.32 1-2z" fill="#F7B457"/>
<path transform="translate(638,482)" d="m0 0c0.124 0.577 0.247 1.15 0.375 1.75 0.632 2.28 1.54 4.16 2.62 6.25-0.61 0.348-1.22 0.696-1.85 1.05-2.78 1.59-5.56 3.17-8.34 4.76-0.96 0.547-1.92 1.09-2.91 1.66-1.4 0.798-1.4 0.798-2.82 1.61-0.854 0.487-1.71 0.974-2.59 1.48-1.75 1.01-3.48 2.05-5.19 3.12-2.31 1.32-2.31 1.32-4.31 1.32-0.33 0.99-0.66 1.98-1 3-3.06 1.19-3.06 1.19-6 2v2c-1.32 0.33-2.64 0.66-4 1v-2c-1.32-0.33-2.64-0.66-4-1-0.33-1.98-0.66-3.96-1-6 2.86-1.43 4.93-0.6 8 0v-5l4-2v-3c0.577-0.124 1.15-0.248 1.75-0.375 2.35-0.654 4.2-1.28 6.25-2.62 0.805-2.05 0.805-2.05 1-4 1.32-0.33 2.64-0.66 4-1v-2c1.58 0.0619 1.58 0.0619 3.19 0.125 4.7-0.154 8.12-2.12 12.8-2.12z" fill="#F7B457"/>
<path transform="translate(1178,1111)" d="m0 0c3.76 0.327 6.74 1.12 10 3h-2c-0.597 2.76-1 5.16-1 8-0.66 0.33-1.32 0.66-2 1-0.258 0.726-0.516 1.45-0.781 2.2-1.56 3.59-3.95 5.94-6.72 8.61-0.748 0.753-0.748 0.753-1.51 1.52-3.72 3.67-3.72 3.67-5.99 3.67-0.33 0.99-0.66 1.98-1 3-0.639 0.124-1.28 0.247-1.94 0.375-0.681 0.206-1.36 0.412-2.06 0.625-0.247 0.722-0.495 1.44-0.75 2.19-1.65 3.7-4 5.12-7.28 7.38-1.86 1.35-3.4 2.76-4.97 4.43-0.99-1.32-1.98-2.64-3-4 2.53-2.53 5.25-4.72 8-7-1.98 0.495-1.98 0.495-4 1 0.495-2.97 0.495-2.97 1-6h2c-0.66-0.33-1.32-0.66-2-1v-2h2c0.33-0.66 0.66-1.32 1-2h2c0.66-0.99 1.32-1.98 2-3h4l2 2c0.66-0.99 1.32-1.98 2-3-0.99-0.99-1.98-1.98-3-3 0.33-0.99 0.66-1.98 1-3 0.66 0.33 1.32 0.66 2 1l2-2 1 1c0.33-1.65 0.66-3.3 1-5 0.66 0.33 1.32 0.66 2 1 0.66-0.99 1.32-1.98 2-3h2c-0.206-0.949-0.412-1.9-0.625-2.88-0.124-1.03-0.247-2.06-0.375-3.12l2-2z" fill="#F7B457"/>
<path transform="translate(994,538)" d="m0 0c2.48 0.495 2.48 0.495 5 1v5h4c-0.33 1.32-0.66 2.64-1 4h-4v2l-5 3c-1.12 1.15-2.24 2.31-3.35 3.47-4.46 4.15-9.71 8.42-15.4 10.6-0.732 0.313-1.46 0.626-2.22 0.949-0.33 0.99-0.66 1.98-1 3-0.66-0.99-1.32-1.98-2-3 0.516-0.866 1.03-1.73 1.56-2.62 1.63-3.82 1.4-5.42 0.438-9.38 0-3.2 0.743-5.09 2-8l2 2c0.33-0.66 0.66-1.32 1-2h4c-0.206-1.11-0.413-2.23-0.625-3.38-0.186-1.79-0.186-1.79-0.375-3.62l2-2c0.33 1.65 0.66 3.3 1 5 0.33-0.66 0.66-1.32 1-2v3h-2v2c3.37-2.27 3.37-2.27 5-6 5.75-1 5.75-1 8-1v-2z" fill="#F7B457"/>
<path transform="translate(344,1155)" d="m0 0c1.14 0.217 1.14 0.217 2.3 0.438 0.994 0.186 1.99 0.371 3.01 0.562 0.986 0.186 1.97 0.371 2.99 0.562 2.74 0.517 2.74 0.517 5.7 0.438 0.124 1.13 0.248 2.27 0.375 3.44 0.206 1.18 0.413 2.35 0.625 3.56 0.66 0.33 1.32 0.66 2 1-0.66 1.65-1.32 3.3-2 5h-2c-0.99 2.47-0.99 2.47-2 5h-2c-0.255 0.715-0.51 1.43-0.773 2.17-1.31 3.03-2.92 5.46-4.85 8.14-0.632 0.883-1.26 1.77-1.91 2.68-0.482 0.664-0.964 1.33-1.46 2.01-0.33-1.32-0.66-2.64-1-4h-2c-2.74-8.14-3.37-15.4-3-24 0.99-0.33 1.98-0.66 3-1 0.33 3.3 0.66 6.6 1 10 0.0606-0.987 0.121-1.97 0.184-2.99 0.0838-1.28 0.168-2.56 0.254-3.88 0.0812-1.28 0.162-2.55 0.246-3.87 0.316-3.26 0.316-3.26 1.32-5.26zm-5 18 1 2z" fill="#F6B356"/>
<path transform="translate(615,741)" d="m0 0h141c0.33 0.99 0.66 1.98 1 3h-143c0.33-0.99 0.66-1.98 1-3z" fill="#F7B457"/>
<path transform="translate(562,536)" d="m0 0c0.33 0.66 0.66 1.32 1 2 0.99-0.33 1.98-0.66 3-1 0.66 0.33 1.32 0.66 2 1 0.0636 4.09 0.0872 7.65-2.55 10.9-4.7 4.07-4.7 4.07-7.45 4.07-0.249 0.556-0.498 1.11-0.754 1.68-1.47 2.73-3.23 4.97-5.18 7.38-0.69 0.857-1.38 1.71-2.09 2.6-1.59 1.88-3.19 3.64-4.97 5.34-1.56-2.81-1.56-2.81-3-6 0.495-1.49 0.495-1.49 1-3v-3c0.317-2.34 0.648-4.67 1-7h3c-0.33-1.65-0.66-3.3-1-5 0.99-0.33 1.98-0.66 3-1 0.33-0.99 0.66-1.98 1-3h4v-3c1.13-0.124 2.27-0.247 3.44-0.375 1.18-0.206 2.35-0.413 3.56-0.625 0.33-0.66 0.66-1.32 1-2z" fill="#F7B457"/>
<path transform="translate(815,708)" d="m0 0c0.897 0.681 0.897 0.681 1.81 1.38 1.69 1.26 3.43 2.45 5.19 3.62-0.99 0.33-1.98 0.66-3 1-0.66-0.33-1.32-0.66-2-1 1.63 3.12 1.63 3.12 4.12 3.69 0.619 0.103 1.24 0.206 1.88 0.312-5.75 4-5.75 4-8 4-0.33 0.99-0.66 1.98-1 3-1.32 0.685-2.66 1.35-4 2-1.36 1.31-2.69 2.65-4 4-1.75 1.53-3.53 3.04-5.32 4.54-1.64 1.42-3.17 2.91-4.68 4.46 0.375-2.94 0.375-2.94 1-6 0.66-0.33 1.32-0.66 2-1-0.165-1.2-0.33-2.39-0.5-3.62-0.445-3.48-0.5-6.86-0.5-10.4-0.33-0.66-0.66-1.32-1-2 0.5-2.5 0.5-2.5 2-5 4.51-1.87 7.33-2.01 12-1 2.27-0.841 2.27-0.841 4-2z" fill="#F7B457"/>
<path transform="translate(726,492)" d="m0 0 2 1c-0.519 0.447-1.04 0.895-1.57 1.36-4.58 3.97-8.98 8.02-13.1 12.5-1.31 1.19-1.31 1.19-3.31 1.19-0.246 0.575-0.492 1.15-0.746 1.74-1.45 2.61-3.16 4.32-5.32 6.38-2.85 2.65-2.85 2.65-4.94 5.88h-2c-0.0928 0.835-0.0928 0.835-0.188 1.69-1.15 3.27-3.34 4.88-5.81 7.31-2.07 2.27-4.06 4.6-6.06 6.94-0.516 0.595-1.03 1.19-1.56 1.8-2.41 2.81-4.66 5.6-6.68 8.7-0.558 0.844-1.12 1.69-1.69 2.56h-1c-0.33-1.65-0.66-3.3-1-5-0.66 0.99-1.32 1.98-2 3v-7c-0.66-0.33-1.32-0.66-2-1 4.49-2.95 4.49-2.95 7.62-3.25 0.784-0.247 1.57-0.495 2.38-0.75 0.454-1.13 0.908-2.27 1.38-3.44 1.62-3.56 1.62-3.56 5.31-5 1.09-0.186 2.19-0.371 3.31-0.562 0.144-0.639 0.289-1.28 0.438-1.94 0.562-2.06 0.562-2.06 1.56-3.06 0.33-0.99 0.66-1.98 1-3 2.06-0.688 2.06-0.688 4-1 0.144-0.784 0.289-1.57 0.438-2.38 0.562-2.62 0.562-2.62 1.56-4.62 0.639-0.103 1.28-0.206 1.94-0.312 0.681-0.227 1.36-0.454 2.06-0.688 0.697-1.65 1.36-3.32 2-5 2.35-2.12 3.97-2.99 7-4v-2c1.03-0.433 2.06-0.866 3.12-1.31 6.41-2.6 6.41-2.6 11.9-6.69z" fill="#F7B457"/>
<path transform="translate(1248,955)" d="m0 0c1.32 0.66 2.64 1.32 4 2v22c-0.66 0.33-1.32 0.66-2 1-0.656 2.53-0.656 2.53-1 5-0.99-0.33-1.98-0.66-3-1 0.485 4.65 0.485 4.65 2 9-2.48 6.74-2.48 6.74-5 8 0.33-2.31 0.66-4.62 1-7-0.825-0.33-1.65-0.66-2.5-1-0.825-0.66-1.65-1.32-2.5-2-0.517-5.17 0.21-9.87 1-15v-4c-0.66-0.33-1.32-0.66-2-1 0.33-0.66 0.66-1.32 1-2 0.0397-1.67 0.0438-3.33 0-5h2c0.33 1.98 0.66 3.96 1 6h1c0.0374-0.603 0.0748-1.21 0.113-1.83 0.653-7.94 0.653-7.94 3.89-11.2 0.66 0.33 1.32 0.66 2 1-0.33-0.99-0.66-1.98-1-3z" fill="#F7B457"/>
<path transform="translate(979 1201)" d="m0 0c1.26 0.0554 2.52 0.111 3.81 0.168 3.19 0.645 3.19 0.645 4.62 2.7 0.186 0.643 0.371 1.29 0.562 1.95 1.32-0.33 2.64-0.66 4-1v5c0.66 0.33 1.32 0.66 2 1h-2c0.33 0.99 0.66 1.98 1 3h2c0.33-0.66 0.66-1.32 1-2v2h2v2c0.66 0.66 1.32 1.32 2 2-3.04 0.0823-5.07-0.0239-8-1-2.4-0.687-4.7-1.1-7.19-1.44-2.91-0.429-5.75-0.909-8.62-1.5-0.749-0.153-1.5-0.307-2.27-0.465-1.92-0.598-1.92-0.598-3.92-2.6-0.956-3.3-1.27-5.76 0-9 3.02-1.51 5.66-0.994 9-0.812z" fill="#FAB759"/>
<path transform="translate(853,692)" d="m0 0-2 1v2c1.64-0.309 1.64-0.309 3.31-0.625 3.69-0.375 3.69-0.375 6.69 1.62-1.18 0.543-2.36 1.09-3.58 1.64-1.56 0.722-3.11 1.45-4.67 2.17-1.17 0.535-1.17 0.535-2.36 1.08-3.79 1.76-7.1 3.51-10.4 6.11-2.75 0.688-2.75 0.688-5 1-0.33 0.99-0.66 1.98-1 3-2.94 1.62-2.94 1.62-6 3-0.66 0.33-1.32 0.66-2 1v-6c2.31-0.66 4.62-1.32 7-2v-2h-2c-1.62-2-1.62-2-3-4 2.51-3.11 4.68-3.58 8.56-4.19 0.971-0.159 1.94-0.317 2.94-0.48 2.5-0.332 2.5-0.332 4.5-0.332v-3c2.96-1.48 5.74-1.06 9-1z" fill="#F7B457"/>
<path transform="translate(558,439)" d="m0 0c2 2 2 2 2.44 4.88-0.438 3.12-0.438 3.12-2.62 5.31-1.79 1.16-3.6 2.28-5.44 3.38-2.39 1.32-2.39 1.32-4.06 3.12-0.433 0.433-0.866 0.866-1.31 1.31h-2c-0.33 0.99-0.66 1.98-1 3-2.59 1.88-5.14 3.57-8 5 0-4 0-4 1.5-5.75 0.495-0.413 0.99-0.825 1.5-1.25h-2c-0.33 0.66-0.66 1.32-1 2-0.99-0.66-1.98-1.32-3-2v-2h2v-2h-2v-2h2v-2h7c0.33-0.99 0.66-1.98 1-3 1.11 0.206 2.23 0.413 3.38 0.625 1.2 0.124 2.39 0.248 3.62 0.375 1.97-1.97 2.83-3.51 4-6 1-2 1-2 4-3z" fill="#F7B457"/>
<path transform="translate(398,647)" d="m0 0c0.66 0.66 1.32 1.32 2 2h-3c0.99 0.33 1.98 0.66 3 1 0.688 2.06 0.688 2.06 1 4h3v5c1.32 0.33 2.64 0.66 4 1 0.33-0.99 0.66-1.98 1-3 2.15 3.23 2.2 4.28 2 8-3.21-0.449-6.42-0.911-9.62-1.38-0.904-0.126-1.81-0.253-2.74-0.383-4.74-0.692-9.13-1.52-13.6-3.24 0.66-0.99 1.32-1.98 2-3h3c-0.33-1.65-0.66-3.3-1-5 0.99-0.33 1.98-0.66 3-1 0.66 0.33 1.32 0.66 2 1 0.289-0.639 0.577-1.28 0.875-1.94 1.12-2.06 1.12-2.06 3.12-3.06z" fill="#F7B457"/>
<path transform="translate(464,1069)" d="m0 0c-1.85 1.85-3.71 3.32-5.81 4.88-2.41 1.78-4.75 3.59-7.06 5.5-2.12 1.62-2.12 1.62-4.12 1.62v2c-3.63-0.33-7.26-0.66-11-1v-6c9.41-4.22 9.41-4.22 14-6-0.33-0.99-0.66-1.98-1-3 4.42-2.21 10.5 0.643 15 2z" fill="#F3B155"/>
<path transform="translate(686 767)" d="m0 0c0.761-0.00322 1.52-0.00645 2.31-0.00977 2.19-0.00567 4.38 0.00457 6.57 0.0215 1.28 0.00862 2.55 0.0172 3.87 0.0261 3.02 0.255 4.72 0.676 7.26 2.27v2h-58v-1c12.7-2.62 25.1-3.31 38-3.31z" fill="#F7B457"/>
<path transform="translate(984,817)" d="m0 0c1.32 0.33 2.64 0.66 4 1 0.0425 2 0.0408 4 0 6l-1 1c-0.0317 3.08 0.0685 6.14 0.16 9.21-0.16 2.79-0.16 2.79-2.16 4.79v-2h-2c-0.33 0.99-0.66 1.98-1 3-1.32-2.31-2.64-4.62-4-7-0.66 0.99-1.32 1.98-2 3-0.66-0.33-1.32-0.66-2-1 0.33-3.3 0.66-6.6 1-10 0.66 0.33 1.32 0.66 2 1l2-2v-3c0.99 0.33 1.98 0.66 3 1 0.66-1.65 1.32-3.3 2-5z" fill="#F7B457"/>
<path transform="translate(710,619)" d="m0 0c2.35 0.142 4.71 0.289 7.06 0.438 1.97 0.122 1.97 0.122 3.97 0.246 2.57 0.205 5.14 0.487 7.7 0.855 2.6 0.367 4.85 0.522 7.45 0.398 3.66 0.06 4.75 0.476 7.81 2.06 1.67-0.316 3.34-0.652 5-1 4.88 0.452 9.34 1.57 14 3v3c-4.41-0.382-8.82-0.773-13.2-1.17-1.5-0.134-2.99-0.266-4.49-0.396-2.17-0.188-4.33-0.384-6.49-0.581-1.3-0.115-2.6-0.23-3.94-0.349-4.09-0.535-7.86-1.45-11.8-2.5-3.18-0.531-6.36-0.99-9.56-1.44-0.806-0.186-1.61-0.371-2.44-0.562-0.33-0.66-0.66-1.32-1-2z" fill="#F7B457"/>
<path transform="translate(457,1236)" d="m0 0c0.66 0.66 1.32 1.32 2 2-0.33 0.33-0.66 0.66-1 1 0.763-0.186 1.53-0.371 2.31-0.562 2.69-0.438 2.69-0.438 5.69 0.562 1.66 0.348 3.33 0.684 5 1-0.99 0.33-1.98 0.66-3 1 0.33 1.65 0.66 3.3 1 5-1.27 0.532-2.54 1.05-3.81 1.56-0.708 0.29-1.42 0.58-2.14 0.879-2.04 0.559-2.04 0.559-5.04-0.441 0.33-0.66 0.66-1.32 1-2-1.09-0.103-2.19-0.206-3.31-0.312-3.69-0.688-3.69-0.688-5.62-2-1.06-1.69-1.06-1.69-1.06-5.69h8v-2z" fill="#FAB759"/>
<path transform="translate(982,658)" d="m0 0c1.41 2.64 2.37 5.07 3 8-0.99 0.495-0.99 0.495-2 1 5.66 0.921 11.3 1.3 17 1.62 2.82 0.358 4.58 0.929 6.99 2.38-0.33 0.66-0.66 1.32-1 2-1.79 0.027-3.58 0.0464-5.38 0.0625-0.998 0.0116-2 0.0232-3.02 0.0352-2.6-0.0977-2.6-0.0977-4.6-1.1-1.59-0.152-3.19-0.249-4.79-0.316-0.941-0.0419-1.88-0.0838-2.85-0.127-0.985-0.0393-1.97-0.0786-2.98-0.119-0.993-0.0432-1.99-0.0864-3.01-0.131-2.46-0.106-4.91-0.208-7.37-0.307 0.495-0.454 0.99-0.908 1.5-1.38 1.73-1.5 1.73-1.5 1.5-3.62 0.474-0.454 0.949-0.908 1.44-1.38 1.73-1.52 1.73-1.52 2.06-3.75 0.165-0.619 0.33-1.24 0.5-1.88 0.99-0.33 1.98-0.66 3-1z" fill="#F7B457"/>
<path transform="translate(827,346)" d="m0 0c0.99 0.66 1.98 1.32 3 2v4c0.99 0.33 1.98 0.66 3 1h-3c0.99 0.66 1.98 1.32 3 2-0.321 0.513-0.642 1.03-0.973 1.55-1.78 4.24-1.44 8.78-1.59 13.3-0.146 1.03-0.291 2.06-0.441 3.12-3 2-3 2-6 2 1.41-25.8 1.41-25.8 3-29z" fill="#FBB859"/>
<path transform="translate(1146,802)" d="m0 0v6c1.32 0.33 2.64 0.66 4 1-0.615 0.254-1.23 0.508-1.86 0.77-0.808 0.344-1.62 0.688-2.45 1.04-0.801 0.336-1.6 0.673-2.43 1.02-2.31 1.05-2.31 1.05-3.92 2.82-0.443 0.443-0.887 0.887-1.34 1.34-2.19-0.312-2.19-0.312-4-1v-2l-4-2c0.99-1.32 1.98-2.64 3-4-1.32-0.33-2.64-0.66-4-1 0.33-0.66 0.66-1.32 1-2 2.97 0.495 2.97 0.495 6 1 0.33-0.66 0.66-1.32 1-2 3.38-1.74 5.39-2.34 9-1z" fill="#F7B457"/>
<path transform="translate(1141,1094)" d="m0 0c5.06 1.69 5.06 1.69 7 3 1.38 2.94 1.38 2.94 2 6-0.99 1.48-0.99 1.48-2 3-3-1-3-1-4.19-3.06-0.402-0.959-0.402-0.959-0.812-1.94v5h-2v-2c-0.66-0.33-1.32-0.66-2-1v5c-2.31 0.66-4.62 1.32-7 2-0.429-4.37-0.551-6.31 2.25-9.81 2.24-1.78 4.12-3.12 6.75-4.19v-2z" fill="#F7B457"/>
<path transform="translate(475,480)" d="m0 0c1.5 1.38 1.5 1.38 3 3v2c0.66 0.33 1.32 0.66 2 1 0.306 0.616 0.611 1.23 0.926 1.87 2.42 4.81 6.76 7.66 11.7 9.45 1.11 0.227 2.23 0.454 3.38 0.688 1.45 0.309 1.45 0.309 2.94 0.625 0.681 0.124 1.36 0.248 2.06 0.375-1.32 1.65-2.64 3.3-4 5-4.95-1.31-7.72-3.21-11.4-6.75-4.34-4.1-8.75-7.81-13.6-11.2 0.375-2.44 0.375-2.44 1-5 0.66-0.33 1.32-0.66 2-1z" fill="#F7B457"/>
<path transform="translate(949 1174)" d="m0 0c8.61 2.81 16.8 2.55 25.8 2.19v3c-25.8 0.488-25.8 0.488-37-2-0.33-0.66-0.66-1.32-1-2 4.86-3.01 6.95-3.2 12.2-1.19z" fill="#F7B457"/>
<path transform="translate(1167,958)" d="m0 0c0.33 0.99 0.66 1.98 1 3h7c-1 3-1 3-3.11 4.35-0.871 0.42-1.74 0.84-2.64 1.27-0.861 0.425-1.72 0.851-2.61 1.29-2.56 1.05-4.92 1.64-7.64 2.09-1.24-3.58-0.749-6.34 0-10 1.13-0.144 2.27-0.289 3.44-0.438 3.37-0.174 3.37-0.174 4.56-1.56z" fill="#F7B457"/>
<path transform="translate(1184,1040)" d="m0 0c2.34 0.256 4.68 0.593 7 1 0.33 0.66 0.66 1.32 1 2-0.996 2.38-0.996 2.38-2.44 5.12-0.473 0.91-0.946 1.82-1.43 2.76-0.373 0.699-0.745 1.4-1.13 2.12-0.99-0.66-1.98-1.32-3-2-0.99 0.99-1.98 1.98-3 3-0.186-0.835-0.186-0.835-0.375-1.69-0.685-2.53-1.62-4.89-2.62-7.31 0.619-0.0825 1.24-0.165 1.88-0.25 2.31-0.563 2.31-0.563 3.38-2.81 0.247-0.639 0.495-1.28 0.75-1.94z" fill="#F7B457"/>
<path transform="translate(373,1148)" d="m0 0c0.99 0.33 1.98 0.66 3 1-4.06 5.59-8.38 10.9-13 16-0.66-0.33-1.32-0.66-2-1v-5c-0.66-0.33-1.32-0.66-2-1 0.99-2.31 1.98-4.62 3-7 0.969 0.165 1.94 0.33 2.94 0.5 2.02 0.36 2.02 0.36 4.06 0.5 1.35-1.31 2.69-2.65 4-4z" fill="#F7B457"/>
<path transform="translate(656,1064)" d="m0 0c7.64-0.212 14.9 2.58 21.8 5.62 2.51 1.08 4.57 1.75 7.19 2.38 1.92 0.517 3.83 1.04 5.75 1.56 0.985 0.269 1.97 0.539 2.98 0.816 0.748 0.205 1.5 0.41 2.27 0.621v2c0.99-0.33 1.98-0.66 3-1 0.495 0.99 0.495 0.99 1 2-11.5-0.298-22.2-4.74-32.7-9.09-3.71-1.48-7.5-2.7-11.3-3.91v-1z" fill="#F7B457"/>
<path transform="translate(960,911)" d="m0 0c7.55-0.301 14.6 0.574 22 2v3h-23c0.33-1.65 0.66-3.3 1-5z" fill="#F7B457"/>
<path transform="translate(1e3 1167)" d="m0 0 3 3h-2v2c-4.63 1.02-8.34 0.838-13 0v3c4.46 0.99 4.46 0.99 9 2v1c-5.79 0.105-11.3-0.00749-17-1 0.312-1.88 0.312-1.88 1-4 0.99-0.66 1.98-1.32 3-2v-1c8.57-0.143 8.57-0.143 12 1 0.33-0.66 0.66-1.32 1-2v2c0.66-0.33 1.32-0.66 2-1 0.33-0.99 0.66-1.98 1-3z" fill="#F7B457"/>
<path transform="translate(815,1054)" d="m0 0c3.04 1.01 4.03 1.58 6 4 0.688 2.19 0.688 2.19 1 4-2.46 1.55-3.63 2.04-6.56 1.69-1.83-0.515-3.64-1.09-5.44-1.69v2c-2-1-2-1-3-4 0.66-0.99 1.32-1.98 2-3 2.62-0.188 2.62-0.188 5 0 0.33-0.99 0.66-1.98 1-3z" fill="#F7B457"/>
<path transform="translate(435,578)" d="m0 0c1.65 0.33 3.3 0.66 5 1 0.925 4.72 1.23 7.67-1 12-2-3-2-3-2-5h-3c0.33 0.99 0.66 1.98 1 3-0.66 0.66-1.32 1.32-2 2v-3c-0.66-0.33-1.32-0.66-2-1 1.06-3.4 2.01-6.01 4-9z" fill="#F7B457"/>
<path transform="translate(1176,909)" d="m0 0h6c-0.33 1.32-0.66 2.64-1 4-2.64-0.33-5.28-0.66-8-1v5c-1.88 1.06-1.88 1.06-4 2l-2-1c-0.33 0.66-0.66 1.32-1 2v-4h-2c0.68-1.95 0.68-1.95 2-4 2.38-0.609 2.38-0.609 5.12-0.75 0.91-0.0567 1.82-0.113 2.76-0.172 0.699-0.0258 1.4-0.0516 2.12-0.0781v-2z" fill="#F7B457"/>
<path transform="translate(403,1110)" d="m0 0c1.88 0.812 1.88 0.812 4 2 0.743 0.371 1.49 0.743 2.25 1.12 0.577 0.289 1.15 0.578 1.75 0.875-0.952 1.01-1.91 2-2.88 3-0.534 0.557-1.07 1.11-1.62 1.69-1.51 1.31-1.51 1.31-3.51 1.31-0.33 0.99-0.66 1.98-1 3-3.23-6.25-3.23-6.25-2.19-9.62 1.19-2.38 1.19-2.38 3.19-3.38z" fill="#F7B457"/>
<path transform="translate(839,352)" d="m0 0h6c-0.75 6.75-0.75 6.75-3 9-2.62-0.327-4.64-0.82-7-2v5h-1v-8h4c0.33-1.32 0.66-2.64 1-4z" fill="#FAB759"/>
<path transform="translate(434,586)" d="m0 0h3c0.966 3.69 1.12 5.66-0.125 9.31-1.88 2.69-1.88 2.69-4.5 3.62-0.784 0.0206-1.57 0.0412-2.38 0.0625-1-1-1-1-1.06-3.56 0.0206-0.804 0.0412-1.61 0.0625-2.44h3v-2h2v-5z" fill="#FAB759"/>
<path transform="translate(425,1089)" d="m0 0h5v3c0.66 0.33 1.32 0.66 2 1-0.33 0.99-0.66 1.98-1 3h-2c-0.33 0.99-0.66 1.98-1 3-2.6 1.65-3.86 2-7 2 0-2 0-2 1.5-3.62 0.495-0.454 0.99-0.908 1.5-1.38-0.66-0.66-1.32-1.32-2-2 0.99-0.66 1.98-1.32 3-2v-3z" fill="#F7B457"/>
<path transform="translate(561,765)" d="m0 0c-0.33 0.99-0.66 1.98-1 3 0.99 0.33 1.98 0.66 3 1v1c-10.6 1.33-10.6 1.33-15 0v-5c4.63-1.02 8.34-0.838 13 0z" fill="#F7B457"/>
<path transform="translate(708,1077)" d="m0 0c2.26 0.143 4.52 0.251 6.78 0.328 3.2 0.969 4.35 3 6.22 5.67-3.13-0.445-6.25-0.908-9.38-1.38-0.889-0.126-1.78-0.253-2.7-0.383-0.851-0.129-1.7-0.258-2.58-0.391-0.786-0.115-1.57-0.23-2.38-0.349-1.97-0.502-1.97-0.502-3.97-2.5 3.22-1.95 4.46-1.95 8-1z" fill="#F7B457"/>
<path transform="translate(638,770)" d="m0 0v1h-25v-2c8.59-1.81 16.6-1.28 25 1z" fill="#F7B457"/>
<path transform="translate(955,507)" d="m0 0c5.12 1.31 7.36 3.27 11 7 2.93 2.11 5.96 4.06 9 6 0.99 0.66 1.98 1.32 3 2 0.188 2.62 0.188 2.62 0 5-0.33-0.66-0.66-1.32-1-2h-2c-1.17-1.15-2.33-2.31-3.47-3.49-2.9-2.84-6.15-5.26-9.35-7.76-1.36-1.06-2.72-2.13-4.08-3.2-0.597-0.466-1.19-0.931-1.81-1.41-0.428-0.375-0.856-0.75-1.3-1.14v-1z" fill="#F7B457"/>
<path transform="translate(775,511)" d="m0 0c6.62 0.75 6.62 0.75 10 3v2c-4.46 1.49-4.46 1.49-9 3v-3h-2c0.33-1.65 0.66-3.3 1-5z" fill="#FAB759"/>
<path transform="translate(1210,954)" d="m0 0h4c0.218 6-0.494 11.2-2 17h-2c-0.773-5.91-1.15-11.1 0-17z" fill="#F7B457"/>
<path transform="translate(531,579)" d="m0 0c1.65 0.33 3.3 0.66 5 1-0.615 3.99-2.71 6.74-5 10-2.38-2.38-2.59-3.72-3-7 0.33-0.66 0.66-1.32 1-2h2v-2z" fill="#F7B457"/>
<path transform="translate(1218,1064)" d="m0 0c0.66 0.33 1.32 0.66 2 1 0.99 0.33 1.98 0.66 3 1-0.688 2.88-0.688 2.88-2 6-2.62 1.38-2.62 1.38-5 2-2-4.75-2-4.75-2-7 0.99-0.33 1.98-0.66 3-1 0.33-0.66 0.66-1.32 1-2z" fill="#F7B457"/>
<path transform="translate(972,977)" d="m0 0c4.09-0.24 7.18 0.577 11 2v1h-39v-1c9.24-0.33 18.5-0.66 28-1v-1z" fill="#F7B457"/>
<path transform="translate(1022,1208)" d="m0 0c1.88 0.25 1.88 0.25 4 1 1.25 2.06 1.25 2.06 2 4-8.43 2.43-8.43 2.43-13 1 0.99-0.33 1.98-0.66 3-1v-2h3c0.33-0.99 0.66-1.98 1-3z" fill="#FAB759"/>
<path transform="translate(1e3 1197)" d="m0 0v2c0.33 0.66 0.66 1.32 1 2-3.3-0.66-6.6-1.32-10-2v1h-5c0.33-1.32 0.66-2.64 1-4 1.41-0.224 2.83-0.428 4.25-0.625 1.18-0.174 1.18-0.174 2.39-0.352 2.68-0.0266 4.09 0.611 6.36 1.98z" fill="#FAB759"/>
<path transform="translate(470,1065)" d="m0 0h2v2h4c0.33 2.31 0.66 4.62 1 7-4.45-1.98-4.45-1.98-9-4 0-3 0-3 2-5z" fill="#EBAB52"/>
<path transform="translate(893,957)" d="m0 0c0.33 2.64 0.66 5.28 1 8-1.98 0.33-3.96 0.66-6 1-1.12-2.31-1.12-2.31-2-5 2-3 2-3 4.06-3.69 1.94-0.312 1.94-0.312 2.94-0.312z" fill="#F7B457"/>
<path transform="translate(969 705)" d="m0 0c1.08 0.00258 2.17 0.00516 3.29 0.00781 1.62-0.00387 1.62-0.00387 3.28-0.00781 2.79 0.133 2.79 0.133 4.79 1.13v2c-3.21 1.61-6.44 1.06-10 1-0.33-0.66-0.66-1.32-1-2-2.02-0.652-2.02-0.652-4-1 1-1 1-1 3.65-1.13z" fill="#F7B457"/>
<path transform="translate(1007,1171)" d="m0 0h7c-0.33 0.99-0.66 1.98-1 3 0.66 0.33 1.32 0.66 2 1-2.99 0.872-5.64 1.11-8.75 1.06-0.799-0.00902-1.6-0.018-2.42-0.0273-0.603-0.0116-1.21-0.0232-1.83-0.0352 0.639-0.268 1.28-0.536 1.94-0.812 2.39-1.07 2.39-1.07 3.06-4.19z" fill="#F7B457"/>
<path transform="translate(341,1161)" d="m0 0v13c-0.99 0.33-1.98 0.66-3 1v-13c2-1 2-1 3-1z" fill="#F7B457"/>
<path transform="translate(1e3 1200)" d="m0 0c-0.33 1.65-0.66 3.3-1 5 0.99-0.33 1.98-0.66 3-1-0.33 0.99-0.66 1.98-1 3-2.64-0.33-5.28-0.66-8-1v-4c3-2 3-2 7-2z" fill="#FAB759"/>
<path transform="translate(849,350)" d="m0 0h10v2c1.32 0.33 2.64 0.66 4 1-5.42 0.934-8.8 1.21-14-1v-2z" fill="#FAB759"/>
<path transform="translate(917,673)" d="m0 0h14c-2.81 2.81-5.22 2.63-9.12 3.12-1.28 0.168-2.56 0.335-3.88 0.508-0.987 0.121-1.97 0.242-2.99 0.367 0.66-1.32 1.32-2.64 2-4z" fill="#F7B457"/>
<path transform="translate(688,948)" d="m0 0v13h-3v-12c2-1 2-1 3-1z" fill="#F8B557"/>
<path transform="translate(432,592)" d="m0 0c1.32 1.65 2.64 3.3 4 5-1.98 0.66-3.96 1.32-6 2-1-1-1-1-1.06-3.56 0.0206-0.804 0.0412-1.61 0.0625-2.44 0.99-0.33 1.98-0.66 3-1z" fill="#F7B457"/>
<path transform="translate(1011,1162)" d="m0 0c1.32 1.32 2.64 2.64 4 4h-15c2.3-2.3 2.95-2.3 6.06-2.56 3.7 0.00337 3.7 0.00337 4.94-1.44z" fill="#F7B457"/>
<path transform="translate(1077,1089)" d="m0 0c1.65 0.33 3.3 0.66 5 1-1.13 3.29-1.99 4-5.12 5.75-1.42 0.619-1.42 0.619-2.88 1.25-0.33-0.66-0.66-1.32-1-2 0.474-0.433 0.949-0.866 1.44-1.31 1.8-1.71 1.8-1.71 2.56-4.69z" fill="#F7B457"/>
<path transform="translate(540,982)" d="m0 0h2c0.66 1.32 1.32 2.64 2 4h2c1.06 1.81 1.06 1.81 2 4-0.33 0.99-0.66 1.98-1 3-1.18-1.26-2.34-2.54-3.5-3.81-0.65-0.708-1.3-1.42-1.97-2.14-1.53-2.04-1.53-2.04-1.53-5.04z" fill="#F7B457"/>
<path transform="translate(737,803)" d="m0 0c1.56 1.75 1.56 1.75 3 4-0.312 2.25-0.312 2.25-1 4-1.65-0.33-3.3-0.66-5-1 0.75-4.75 0.75-4.75 3-7z" fill="#F7B457"/>
<path transform="translate(776,551)" d="m0 0c0.99 0.33 1.98 0.66 3 1v11c-3-3-3-3-3.29-5.26 0.0348-0.801 0.0696-1.6 0.105-2.43 0.0271-0.808 0.0541-1.62 0.082-2.45 0.0348-0.615 0.0696-1.23 0.105-1.86z" fill="#FBB85A"/>
<path transform="translate(1070,1088)" d="m0 0 4 4c-0.33 0.99-0.66 1.98-1 3-2.38 0.625-2.38 0.625-5 1-0.66-0.66-1.32-1.32-2-2 0.99-0.33 1.98-0.66 3-1 0.33-1.65 0.66-3.3 1-5z" fill="#F7B457"/>
<path transform="translate(797,484)" d="m0 0h1v24h-1v-24z"/>
<path transform="translate(1021,1015)" d="m0 0h1v17h-1v-17z" fill="#F9B658"/>
<path transform="translate(996,915)" d="m0 0h15v1h-15v-1z"/>
<path transform="translate(995,979)" d="m0 0h14v1h-14v-1z"/>
<path transform="translate(885,851)" d="m0 0h12v1h-12v-1z"/>
<path transform="translate(1256,940)" d="m0 0h1v7h-1v-7z"/>
<path transform="translate(1291,388)" d="m0 0h1v7h-1v-7z"/>
<path transform="translate(1216,913)" d="m0 0h1v5h-1v-5z"/>
<path transform="translate(947,672)" d="m0 0h5v1h-5v-1z"/>
<path transform="translate(528,1155)" d="m0 0 1 4z"/>
<path transform="translate(338,1144)" d="m0 0 1 4z" fill="#F9B658"/>
<path transform="translate(1021,1037)" d="m0 0 1 4z" fill="#FCB959"/>
<path transform="translate(1256,924)" d="m0 0 1 4z"/>
<path transform="translate(709,910)" d="m0 0 1 4z"/>
<path transform="translate(482,718)" d="m0 0 1 4z"/>
<path transform="translate(425,1254)" d="m0 0c3 1 3 1 3 1z"/>
<path transform="translate(495,1086)" d="m0 0c3 1 3 1 3 1z"/>
<path transform="translate(773,897)" d="m0 0c3 1 3 1 3 1z" fill="#FCB959"/>
<path transform="translate(382,855)" d="m0 0c3 1 3 1 3 1z"/>
<path transform="translate(990,672)" d="m0 0c3 1 3 1 3 1z"/>
<path transform="translate(348,1285)" d="m0 0 2 1z"/>
<path transform="translate(723,1084)" d="m0 0 2 1z"/>
<path transform="translate(940,1012)" d="m0 0 2 1z"/>
<path transform="translate(978,851)" d="m0 0 2 1z"/>
<path transform="translate(938,851)" d="m0 0 2 1z"/>
<path transform="translate(1010,690)" d="m0 0 2 1z" fill="#F9B658"/>
<path transform="translate(1014,675)" d="m0 0 2 1z"/>
<path transform="translate(407,665)" d="m0 0 2 1z"/>
<path transform="translate(841,623)" d="m0 0 2 1z"/>
<path transform="translate(1063,496)" d="m0 0 2 1z"/>
<path transform="translate(644,400)" d="m0 0 2 1z"/>
<path transform="translate(841,379)" d="m0 0 2 1z"/>
<path transform="translate(721,379)" d="m0 0 2 1z"/>
</svg>
